<?xml version="1.0" encoding="utf-8"?>
<!-- Generator: Adobe Illustrator 18.0.0, SVG Export Plug-In . SVG Version: 6.00 Build 0)  -->
<!DOCTYPE svg PUBLIC "-//W3C//DTD SVG 1.1//EN" "http://www.w3.org/Graphics/SVG/1.1/DTD/svg11.dtd">
<svg version="1.1" id="Capa_1" xmlns="http://www.w3.org/2000/svg" xmlns:xlink="http://www.w3.org/1999/xlink" x="0px" y="0px"
	 viewBox="0 0 800 800" enable-background="new 0 0 800 800" xml:space="preserve">
<g transform="translate(0,0)">
	<path fill="#FFFFFF" d="M568.4,36.8c-15.3,0.1-25.9,4.8-32.4,16c-27.4,47.2-60,96.3-75.9,151.9c4.4,1.3,8.8,2.8,13.1,4.5
		c11.5,4.5,22.5,10.1,32.1,17c43-39.9,90.9-70.6,136.6-102.3c17.7-12.3,19.2-21.2,15.9-32.5s-15.4-25.6-32.1-36.2
		c-16.7-10.6-37.3-17.7-54.3-18.3C570.5,36.8,569.4,36.8,568.4,36.8L568.4,36.8z M460.6,38c-15.7-0.3-27.8,10-37.4,31.6
		c-14,31.6-16,83.5-2.3,130c0.2,0,0.5,0,0.7,0c3.1-0.1,6.2-0.1,9.4,0c14.7-54.4,43.7-101.1,68.8-143C483.7,43.3,470.3,38.1,460.6,38
		L460.6,38z M308.6,128.9l-16.4,24.2c23.2,15.7,45.4,30.8,62.2,49c6.1,6.6,11.5,13.6,16.1,21.3c5.9-7.4,13.3-13.1,21.4-16.9
		c0.6-0.3,1.3-0.6,1.9-0.8c-5.3-8.5-11.4-16.3-18-23.4C355.9,160.7,331.7,144.6,308.6,128.9z M658.2,148.1
		c-45.7,31.6-91.5,61.2-131.8,98.1c0.7,0.9,1.3,1.8,2,2.8c32.3-10.5,77.3-24,115.5-30.3c17.9-3,24.5-10.2,27.5-20.7
		c3-10.4,0.7-26.1-8.3-42.2C661.6,153.2,660,150.6,658.2,148.1L658.2,148.1z M308.3,222.9c-23.4,0.3-46.5,6.7-68.7,19.9l14.9,25
		c33.8-20.1,66.6-22.1,101.9-7.1c0.8-8.7,2.8-16.7,5.8-23.8c0.5-1.3,1.1-2.5,1.8-3.7C345.5,226.2,326.9,222.6,308.3,222.9
		L308.3,222.9z M426.8,229c-8.7-0.1-16.6,1.2-22.5,3.9c-6.8,3.2-11.7,7.7-15.1,15.6c-1.4,3.2-2.5,7.1-3.1,11.7c0.7,0,1.4,0,2.1-0.1
		c25.1-0.1,50.9,4.3,77.1,14.4c12.1,4.6,23.5,11.6,34.4,20.6c5-3.8,7.8-7.4,9-10.2c1.9-4.4,1.7-8.1-1-13.8
		c-5.4-11.4-23.8-26.5-45.1-34.8c-10.7-4.2-21.8-6.6-32.1-7.2C429.3,229.1,428,229,426.8,229L426.8,229z M388.1,289.1
		c-35.9,0.1-69.9,11.5-101.6,30.9c-50.7,31-94.6,83-125.5,140.7c-30.9,57.7-48.6,121-48.7,172.7c-0.1,51.7,16,89.5,51.3,105.9
		c0.1,0,0.1,0.1,0.2,0.1h0.1c38.9,18,102.5,30.2,169.4,31.4c66.9,1.2,137.2-8.5,190.4-31.5c34.3-14.8,54-44.5,63.3-84.6
		c9.3-40.2,7.1-90.1-3.7-139.6c-10.8-49.5-30-98.5-53.3-137.3c-23.3-38.8-51-66.7-75.1-75.9C431.9,293.1,409.6,289,388.1,289.1
		L388.1,289.1z"/>
</g>
</svg>
