<?xml version="1.0" encoding="utf-8"?>
<!-- Generator: Adobe Illustrator 18.0.0, SVG Export Plug-In . SVG Version: 6.00 Build 0)  -->
<!DOCTYPE svg PUBLIC "-//W3C//DTD SVG 1.1//EN" "http://www.w3.org/Graphics/SVG/1.1/DTD/svg11.dtd">
<svg version="1.1" id="Capa_1" xmlns="http://www.w3.org/2000/svg" xmlns:xlink="http://www.w3.org/1999/xlink" x="0px" y="0px"
	 viewBox="0 0 800 800" enable-background="new 0 0 800 800" xml:space="preserve">
<g>
	<g>
		<path fill="#FFFFFF" d="M745,295.5c0,3.1,0,6.1,0,9.2c-1.8,5.2-3.6,10.4-5.3,15.7c-8.1,24.2-12.2,48.9-9.8,74.6
			c1.6,17.5,8,33.3,15.1,49c0,3.1,0,6.1,0,9.2c-2.9,5.3-5.1,11.2-8.8,15.8c-78,95.3-156.3,190.3-234.3,285.6
			c-6.3,7.7-12.9,14.4-22.7,17.4c-3.5,0-6.9,0-10.4,0c-0.4-0.3-0.8-0.8-1.3-1c-115.4-37-230.8-74-346.2-111
			c-16.1-5.2-29.4-14.6-40.3-27.5c-27-32-36.9-95.4-8.7-138.2c2-3.1,2.1-5.2,0.3-8.6c-4.2-7.9-8.3-16-11-24.5
			c-8.5-26.8-7.4-54.3-3.7-81.6c2.9-21.9,11.2-42.4,26.2-59.1c84.4-94,169-187.9,253.5-281.8c8.4-9.3,18.6-12.2,30.7-9.5
			c117.6,26.7,235.3,53.3,352.9,79.9c22.8,5.2,30.3,27.2,15.1,45.2c-86.5,102.1-173.1,204.1-259.5,306.3
			c-8.9,10.5-19.3,13.3-32.3,9.3c-97.6-29.8-195.3-59.3-292.9-88.9c-16.5-5-34.8,5-36.9,22c-1.6,12.7-0.9,26,0.7,38.8
			c1.5,12.3,7,22.8,21.8,24c1.1,0.1,2.2,0.6,3.3,1c106.2,32.6,212.3,65.1,318.5,97.8c4.3,1.3,6.6,0.9,9.6-2.8
			c29.5-36.8,59.2-73.4,88.9-110.1c40.9-50.5,81.8-101,122.6-151.6c1.5-1.9,3.2-4.8,2.8-6.9c-3.1-19.3,0.2-37.9,6.6-55.9
			c2-5.6,6.3-11.1,10.9-14.9c9.1-7.5,22.4-6.8,32.2,0c9.9,7,14.6,19.5,10.7,31.5C738.4,268,736.3,281.9,745,295.5z M671.7,399.9
			c-1.7,2.1-3.4,4.1-5.1,6.2c-56.4,69.8-112.8,139.6-169.2,209.3c-9.9,12.3-19.9,15.3-35.2,10.6c-111-34.3-222.1-68.6-333.1-103.1
			c-4.6-1.4-6.7-0.6-9.1,3.4c-12.4,21.2-8.9,55.3,8,73.1c2.2,2.3,4.9,4.5,7.9,5.4c107.2,34.3,214.5,68.4,321.8,102.7
			c5.2,1.7,8.1,0.8,11.5-3.4c32.4-39.9,65.1-79.5,97.7-119.3c38.1-46.4,76.1-92.8,114.1-139.2c1.3-1.6,3-4.2,2.6-5.8
			C679.9,426.5,675.8,413.4,671.7,399.9z M507.2,219.7c12.7,0.1,20.8-3.2,26.8-11.3c4.5-6.2,9.3-12.2,14.5-17.8
			c8.3-8.8,4.9-16.5-6.2-19.2c-61.5-15-123.1-30-184.7-44.7c-10.1-2.4-20.2-0.8-27.6,7.3c-7,7.6-13.3,15.8-19.7,24
			c-4.6,5.8-3.2,11.2,3.5,14.5c2,1,4.3,1.6,6.5,2.2c56.5,13.7,113,27.5,169.6,41.2C496.5,217.5,503.3,218.9,507.2,219.7z"/>
	</g>
</g>
</svg>
