<?xml version="1.0" encoding="utf-8"?>
<!-- Generator: Adobe Illustrator 18.0.0, SVG Export Plug-In . SVG Version: 6.00 Build 0)  -->
<!DOCTYPE svg PUBLIC "-//W3C//DTD SVG 1.1//EN" "http://www.w3.org/Graphics/SVG/1.1/DTD/svg11.dtd">
<svg version="1.1" id="Capa_1" xmlns="http://www.w3.org/2000/svg" xmlns:xlink="http://www.w3.org/1999/xlink" x="0px" y="0px"
	 viewBox="0 0 800 800" enable-background="new 0 0 800 800" xml:space="preserve">
<g>
	<g>
		<path fill="#FFFFFF" d="M129.8,487.4c0-70.1,0-140.1,0-210.2c0.1-2.6,0.4-5.2,0.4-7.8c0.1-43,0.1-86.1,0.4-129.1
			c0.2-21.5,0.8-43,1.7-64.5c0.3-6,1.2-12.5,3.7-17.9c7.6-16.9,20.4-29,37.2-36.8c6-2.8,12.2-4.5,18.9-4.6c16-0.2,32-0.6,48-0.9
			c7.1-0.1,14.1-0.4,21.2-0.6c148.8,0,297.6,0,446.4,0c-0.1,2-0.3,3.9-0.3,5.9c0,253.2,0,506.5,0,759.7c0,1.9,0,3.8,0,6
			c-2,0-3.4,0-4.9,0c-134.1,0-268.2,0.1-402.3-0.1c-36.9-0.1-73.7-0.9-110.6-1.5c-25.5-0.5-42-14.6-53.2-36.3
			c-3.3-6.5-4.9-13.5-5.1-20.8c-0.2-10.8-0.7-21.5-0.7-32.3c-0.2-66.8-0.3-133.6-0.5-200.4C130.2,492.6,129.9,490,129.8,487.4z
			 M220.7,156.8c0,201.5,0,402.6,0,603.9c154.2,0,308.1,0,462.2,0c0-201.4,0-402.6,0-603.7c-81.4,0-162.5,0-243.8,0
			c0,1.8,0,3.2,0,4.6c-0.1,52.2-0.2,104.4-0.4,156.7c-0.1,55.2-0.3,110.5-0.4,165.7c0,1.6,0,3.7-0.9,4.8c-2.5,2.8-5.2,5.6-8.4,7.7
			c-8.3,5.5-18.5,3.4-24.3-4.7c-1.4-1.9-2.7-3.9-3.9-5.9c-16.1-26.4-32.3-52.8-48.4-79.2c-1.1-1.8-2.4-3.6-3.8-5.7
			c-1.6,2.4-2.8,4.3-4,6.2c-14.7,24.2-29.3,48.4-44.1,72.6c-2.9,4.8-6,9.6-9.8,13.8c-4.6,5.2-11,7.6-17.8,5.4
			c-6.8-2.2-12.2-6.3-12.6-14.4c-0.7-14.7-1.8-29.3-1.8-44c-0.3-92.9-0.3-185.8-0.4-278.7c0-1.6,0-3.3,0-5
			C245.5,156.8,233.3,156.8,220.7,156.8z M446.8,130.6c79.2,0,157.7,0,236.1,0c0-4.6,0-8.8,0-13.2c-17.9,0-35.5,0-53.1,0
			c-1.3,0-2.8,0.2-3.8-0.4c-8.7-5-9.4-17.2-1-22.6c2.4-1.5,5.7-2.1,8.6-2.1c15-0.3,29.9-0.3,44.9-0.3c1.5,0,3,0,4.5,0
			c0-4.3,0-7.9,0-12.1c-1.9,0-3.6,0-5.2,0c-15-0.2-29.9-0.3-44.9-0.6c-5.5-0.1-11-0.3-16.5-1c-5.7-0.7-9.3-5-9.9-10.6
			c-0.7-7.3,4.7-13.5,11.8-13.5c20.1,0,40.1,0,60.2,0c1.5,0,3,0,4.5,0c0-4.8,0-9,0-13.6c-2,0-3.8,0-5.6,0
			c-127.5,0.1-255,0.1-382.5,0.2c-31.6,0-63.2,0.5-94.8,1c-4.4,0.1-9,0.4-13.2,1.6C168.1,49,154.9,68,156.2,87.1
			c1.4,21.1,16.6,38.6,36.3,41.8c4.1,0.7,8.3,1,12.5,1.1c18.2,0.5,36.5,0.7,54.7,1.3c3,0.1,4.4-1,5.6-3.5
			c7.3-14.9,14.8-29.8,22.2-44.7c1.2-2.4,2.6-3.3,5.4-3.3c58.5,0.1,117,0.1,175.5,0.1c1.1,0,2.2,0.2,3.7,0.3
			C463.6,97.1,455.3,113.7,446.8,130.6z M156.6,144.6c0,3.3,0,5.6,0,7.9c-0.2,34-0.6,68-0.6,101.9c-0.1,138.5-0.1,277.1,0.1,415.6
			c0,19.8,1.1,39.6,2.2,59.4c0.3,4.9,1.3,10.7,4.3,14.3c6.3,7.8,14.5,13.7,24.5,16.2c1.9,0.5,4,0.6,7,1
			c1.8-201.6,0.6-402.5,1.1-603.8C181.7,155.6,169.2,151.7,156.6,144.6z"/>
		<path fill="#FFFFFF" d="M129.8,487.4c0.1,2.6,0.4,5.2,0.4,7.8c0.2,66.8,0.3,133.6,0.5,200.4c0,10.8,0.5,21.5,0.7,32.3
			c0.1,7.3,1.7,14.4,5.1,20.8c11.2,21.6,27.6,35.8,53.2,36.3c36.9,0.7,73.7,1.5,110.6,1.5c134.1,0.2,268.2,0.1,402.3,0.1
			c1.4,0,2.9,0,4.9,0c0-2.2,0-4.1,0-6c0-253.2,0-506.5,0-759.7c0-2,0.2-3.9,0.3-5.9c0.3,0.1,0.7,0.2,0.8,0.4c0.1,1,0,2.1,0,3.1
			c0,256.2,0,512.4,0,768.7c-192.9,0-385.8,0-578.7,0C129.8,687.3,129.8,587.4,129.8,487.4z"/>
		<path fill="#FFFFFF" d="M261.3,15c-7.1,0.2-14.1,0.4-21.2,0.6c-16,0.3-32,0.7-48,0.9c-6.7,0.1-12.9,1.8-18.9,4.6
			c-16.8,7.8-29.6,19.9-37.2,36.8c-2.4,5.4-3.4,11.9-3.7,17.9c-0.9,21.5-1.5,43-1.7,64.5c-0.3,43-0.3,86.1-0.4,129.1
			c0,2.6-0.3,5.2-0.4,7.8c0-87.3,0-174.6,0-262.2C173.6,15,217.4,15,261.3,15z"/>
	</g>
</g>
</svg>
