<?xml version="1.0" encoding="utf-8"?>
<!-- Generator: Adobe Illustrator 18.0.0, SVG Export Plug-In . SVG Version: 6.00 Build 0)  -->
<!DOCTYPE svg PUBLIC "-//W3C//DTD SVG 1.1//EN" "http://www.w3.org/Graphics/SVG/1.1/DTD/svg11.dtd">
<svg version="1.1" id="Capa_1" xmlns="http://www.w3.org/2000/svg" xmlns:xlink="http://www.w3.org/1999/xlink" x="0px" y="0px"
	 viewBox="0 0 800 800" enable-background="new 0 0 800 800" xml:space="preserve">
<g>
	<g>
		<path fill="#FFFFFF" d="M310.1,85.7c42.4,2,84.8,4.6,127.2,5.7c44.1,1.1,81.7,20.7,119.1,40.5c49.3,26,98.2,52.8,147,79.7
			c44.4,24.5,53,43.8,38.5,91.8c-27.7,91.5-56.8,182.6-84.9,273.9c-12.1,39.3-35.7,64.1-77.7,72.7c-82.2,16.7-163.7,36.4-245.8,53.6
			c-27.3,5.7-52.6-0.5-73.3-22C206.8,626,152.8,571.1,98.9,516.2c-32.3-32.9-28.5-72.3-21.6-112.7c15.4-89.7,30.5-179.4,45.8-269.1
			c5.6-33.2,27.8-51.6,62.1-51.6c41.6,0,83.3,0,124.9,0C310.1,83.7,310.1,84.7,310.1,85.7z M720.2,293.8
			c-0.4-21.1-9.4-28.3-30.1-27.3c-70.6,3.6-141.3,6.1-212,8.4c-39.3,1.3-75.6,27.2-84.9,65.9c-24.4,100.5-47.8,201.3-71,302.1
			c-5.4,23.4,5.9,34.8,29,30.1c72.2-14.7,144.4-29.4,216.2-45.5c32.8-7.3,55.5-27.5,66-60.7c23.2-73.2,46.9-146.3,70.3-219.4
			C709.4,329.7,714.7,311.7,720.2,293.8z M160.5,121.1c-5.6,11.5-11.5,19.2-13.1,27.7c-16.3,87.8-32.6,175.6-47.3,263.7
			c-6.5,38.8,1.6,73.7,31.7,103.3c44.2,43.5,85.9,89.6,128.8,134.3c3.5,3.6,8.8,5.6,15.9,10c4.4-11,9-19.8,11.5-29.2
			c10.9-40.8,21.9-81.7,31.7-122.8c14.4-60.1,29-120.3,41-180.9c5.6-28.3,2.3-59.9-21.6-78.3C282.1,205,222.2,164.8,160.5,121.1z
			 M206.3,109.2c-0.3,1.6-0.5,3.1-0.8,4.7c50.7,34,101.1,68.6,152.4,101.9c28.8,18.7,61.1,28.1,95.9,26.7
			c63.5-2.4,127.1-4.9,190.6-7.5c12.7-0.5,25.3-1.7,44.2-3c-18.1-10-30.3-16.7-40.2-22.1c-8.1,6.8-15.3,17.4-20.9,16.7
			c-21.9-2.9-43.5-8.8-64.7-15.2c-3.5-1.1-7.4-10.9-6.1-15.3c1.3-4.3,8.6-9.5,13.5-9.7c11.6-0.5,23.4,1.6,41.9,3.3
			c-40.2-21.6-74.5-40-105-56.5c-7.8,6.5-12.5,13.3-18.7,15.1c-22,6.4-55.2-8.8-67.9-28.6c-2.4-3.7-8.3-7-12.7-7.1
			c-33.2-0.6-66.5-0.3-102.7-0.3c6.1,3.4,10.7,4.8,13.7,7.7c4.6,4.6,8,10.3,11.9,15.5c-5.7,2.9-11.7,8.5-17.2,8.1
			c-17.7-1.2-35.8-2.8-52.4-8.2c-7.4-2.4-11.8-14.3-17.6-21.9c1.4-1.4,2.9-2.8,4.3-4.2C234.1,109.2,220.2,109.2,206.3,109.2z"/>
		<path fill="#FFFFFF" d="M425,384.8c0.1-29.4,26.8-58,53.9-57.4c21.5,0.5,27.6,14.4,27.6,32.9c0,29.9-23.8,56.5-51,57.1
			C435.7,417.8,425,406.4,425,384.8z"/>
		<path fill="#FFFFFF" d="M449.3,575c-1,27.5-27.9,55.3-52.4,53.1c-17.5-1.6-26.4-12.5-26.1-29.9c0.4-25.7,28.2-52.8,53.7-52.8
			C440.9,545.4,450,556.2,449.3,575z"/>
		<path fill="#FFFFFF" d="M517,512.7c-3.2-0.5-5.6-0.6-7.8-1.2c-15.3-4.3-22.2-23.5-15.8-43.5c8.4-26.1,37.4-45.2,57-37.4
			c16.2,6.5,22.1,25,12.5,43.7C553,493.5,540.5,510.5,517,512.7z"/>
		<path fill="#FFFFFF" d="M679.5,353.2c-6.8,8.9-17.1,26.1-31.2,39.1c-5.9,5.4-22.6,5.8-29.6,1.1c-7.2-4.7-14-20.6-11.2-27.7
			c6.6-16.5,16.5-33.8,29.9-45.1C656.2,304.9,678.5,318,679.5,353.2z"/>
		<path fill="#FFFFFF" d="M618.7,542.4c-0.2,20.6-23.9,49.3-43.6,52.7c-14.4,2.5-26.4-10.2-26.6-28.2c-0.3-20.7,19.3-45.3,39.7-49.7
			C605.9,513.3,618.8,524,618.7,542.4z"/>
		<path fill="#FFFFFF" d="M328.2,331.4c0.3,23.1-12.4,45.3-27,47.2c-15.5,2-32.9-18.7-36-42.8c-4-30.3,9-55.1,29-55.6
			C313,279.8,327.8,302.1,328.2,331.4z"/>
		<path fill="#FFFFFF" d="M305.5,444.4c-4.5,12.2-6.5,22.5-11.8,30.6c-10.4,16.2-26.2,16.3-38.9,1.7c-14.3-16.4-17.6-54.7-6.4-73.4
			c10.5-17.5,28.6-19.9,39.5-2.8C296.4,413.8,300,430.2,305.5,444.4z"/>
		<path fill="#FFFFFF" d="M146.7,234.3c0.5-7.2,0.1-12.9,1.4-18.1c3.3-14.2,8-28.7,25.9-28.2c16.6,0.4,24.6,11.9,25.9,27.9
			c0.9,10.8,3.1,21.9,1.7,32.4c-2,14.4-8.5,30.5-25.6,27c-10.2-2.1-18.9-15.1-26.4-24.6C146.2,246.5,147.3,238.7,146.7,234.3z"/>
		<path fill="#FFFFFF" d="M280.8,560.1c-6.1,8-11.6,22.2-21.4,26.5c-15.3,6.6-28.3-5.5-32-19.6c-4.3-16.1-5.5-33.9-3.4-50.3
			c0.9-7.1,12.9-17.2,20.6-18c7.7-0.7,20.2,6.6,23.8,13.8C274.9,525.3,276.2,540.7,280.8,560.1z"/>
		<path fill="#FFFFFF" d="M180.6,342.7c-0.1,13-0.3,31.4-21.5,37.4c-13.3,3.7-26.5-14.9-29.5-39.1c-3.4-28.1,6.1-48.8,23.1-50.1
			C169.4,289.6,179.9,307.4,180.6,342.7z"/>
		<path fill="#FFFFFF" d="M170.8,437.5c-11,14.9-18.1,34.6-29.7,37.8c-18,4.9-23.2-15.6-28.2-30.4c-0.2-0.7-0.7-1.6-0.5-2.3
			c3.7-15.8,6.7-31.8,12.1-47c1.1-3,15.6-5.6,17.4-3.3C151.9,405.4,159.9,420,170.8,437.5z"/>
		<path fill="#FFFFFF" d="M436.9,237.9c-19-7.5-36.5-13.7-53.1-21.6c-4.5-2.1-9.7-10-9-14.3c0.7-4.5,8.7-11.7,12.6-11.2
			c24.2,3.3,48.4,7.8,72.1,13.8c3.8,1,8.5,16,7.2,17C458.1,228,448,232.3,436.9,237.9z"/>
	</g>
</g>
</svg>
