<?xml version="1.0" encoding="utf-8"?>
<!-- Generator: Adobe Illustrator 18.0.0, SVG Export Plug-In . SVG Version: 6.00 Build 0)  -->
<!DOCTYPE svg PUBLIC "-//W3C//DTD SVG 1.1//EN" "http://www.w3.org/Graphics/SVG/1.1/DTD/svg11.dtd">
<svg version="1.1" id="Capa_1" xmlns="http://www.w3.org/2000/svg" xmlns:xlink="http://www.w3.org/1999/xlink" x="0px" y="0px"
	 viewBox="0 0 800 800" enable-background="new 0 0 800 800" xml:space="preserve">
<g>
	<g>
		<path fill="#FFFFFF" d="M492.6,789.6c-36.8,0-73.7,0-110.5,0c-1.4-0.5-2.9-1.2-4.3-1.6c-54.5-13.1-104.3-36.1-146.9-72.8
			c-56.1-48.3-87.1-108.9-87.3-184c-0.1-32.9,1.9-65.6,6.3-98.2c6.5-47.8,19.9-93.6,40.8-137.1c28.6-59.5,67.4-112.1,112.3-160
			c33.9-36.1,70-70.1,105.4-104.8c7.8-7.6,16.9-13.8,25.4-20.7c2.1,0,4.2,0,6.4,0c4.6,3.2,9.7,6,13.9,9.7
			c45.3,41,89.4,83.3,129.9,129.1c35.2,39.8,66.3,82.5,91.3,129.6c29.6,55.8,46.9,115.4,52.4,178.1c2.3,26.5,2.3,53.2,2.5,79.8
			c0.1,13.2-0.5,26.6-2.9,39.5c-8.3,44.9-29.5,83.6-60.6,116.8c-41.9,44.6-93.1,73.5-151.7,90.2
			C507.5,785.3,500.1,787.5,492.6,789.6z M437,680.8c22.3,0,44.5,0,66.8,0.1c2.7,0,3.9-0.8,4.8-3.4c19.2-53,38.5-105.9,57.7-158.9
			c0.7-1.9,0.8-4.2,0.4-6.1c-6.6-35.8-13.3-71.5-20.1-107.3c-8.4-44.5-16.9-88.9-25.2-133.4c-0.7-3.6-2.3-6-5.2-7.9
			c-25.6-17.2-51.2-34.4-76.8-51.7c-2.2-1.5-3.6-0.6-5.3,0.5c-25.5,16.9-51,33.8-76.5,50.6c-2.7,1.7-3.6,4-4.1,6.8
			c-4.6,23.6-9.2,47.3-13.7,70.9c-10.8,57.1-21.5,114.2-32.1,171.3c-0.4,2.1-0.2,4.5,0.5,6.5c19.2,52.8,38.5,105.6,57.6,158.5
			c1,2.7,2.1,3.6,5,3.6C393,680.7,415,680.8,437,680.8z M270.7,500.1c-13.2-69.4-26.3-138.4-39.4-207.4c-0.5,0-1,0.1-1.6,0.1
			c-35.2,64.5-50.3,134.2-53,207.3C208.5,500.1,239.3,500.1,270.7,500.1z M643.9,292.6c-1.9,9.3-4,18.5-5.7,27.8
			c-8.7,45.8-17.4,91.5-26.1,137.3c-2.4,12.5-4.7,25-7.2,37.4c-0.6,3.1,0.2,4.5,3.4,4.5c3.2,0,6.3,0.5,9.5,0.5
			c25.4,0.1,50.9,0.1,76.3,0.1c1,0,2.1-0.1,3.7-0.2C695.1,426.8,680.2,357.1,643.9,292.6z M290.3,421.9c0.3,0,0.5,0,0.8-0.1
			c0.4-1.5,0.8-2.9,1.1-4.4c9.8-51.6,19.6-103.2,29.2-154.8c0.3-1.7-0.2-4-1.3-5.4c-11.2-15-22.5-29.8-33.8-44.6
			c-0.8-1.1-1.8-2-3.2-3.6c-8,11.7-15.6,22.9-23.4,33.9c-2.6,3.7-3,7.2-2.1,11.5c9.8,50.4,19.5,100.8,29.3,151.1
			C287.9,411,289.1,416.5,290.3,421.9z M584,422.2c0.3,0,0.6,0,0.9-0.1c0.3-1,0.6-2,0.8-3c4.6-24,9.3-48,13.9-72.1
			c6-31.8,11.9-63.7,17.8-95.5c0.6-3.1,0.1-5.6-1.8-8.1c-7.4-10.2-14.6-20.5-21.9-30.7c-0.6-0.8-1.3-1.5-2.1-2.4
			c-0.9,0.8-1.7,1.4-2.2,2.1c-10.9,14.3-21.8,28.6-32.7,42.9c-3.1,4.1-3.5,8.5-2.5,13.5c5.6,29,10.8,58,16.4,86.9
			C574.9,377.9,579.6,400,584,422.2z M175.5,534.1c2.6,44.2,13.2,85.3,41.9,120.7c16.2-40.4,32.1-80.3,48.3-120.7
			C235.3,534.1,205.6,534.1,175.5,534.1z M698.3,533.8c-29.6,0.2-59.2-0.4-89.5,1c16.3,40.6,32.2,80,48.1,119.7
			C678.6,634.5,702.5,565,698.3,533.8z M438.1,70.6c-0.5-0.1-1-0.1-1.5-0.2c-19.8,46.4-39.7,92.7-59.5,139.1
			c0.3,0.2,0.6,0.5,0.9,0.7c1.3-0.8,2.6-1.6,3.9-2.4c14.7-9.5,29.6-18.6,44-28.5c8.1-5.6,15.1-5.4,23.1,0.1
			c14.8,10.1,30,19.5,45,29.2c0.9,0.6,1.9,1.1,2.9,1.6c0.3-0.2,0.5-0.4,0.8-0.6C477.7,163.2,457.9,116.9,438.1,70.6z M290.4,564.9
			c-1.6,2.9-2.9,4.8-3.7,6.8c-4.9,11.7-10,23.3-14.6,35.1c-9.5,23.8-18.7,47.8-28.1,71.6c-1.1,2.7-0.9,4.7,1.4,6.6
			c3.7,3.2,7.2,6.6,11.1,9.6c1.1,0.9,3.1,1.4,4.5,1.2c18.1-2.9,36.3-6,54.4-9.1c5.7-1,11.3-2.1,17.8-3.4
			C318.9,643.8,304.9,605,290.4,564.9z M541.7,683.3c1.6,0.5,2.1,0.7,2.6,0.8c23.5,4,47,7.9,70.5,11.8c1,0.2,2.4-0.3,3.2-0.9
			c3.8-3.1,7.3-6.5,11.1-9.6c2.5-2.1,2.7-4.2,1.5-7.3c-15-37.5-29.8-75-44.7-112.5c-0.2-0.5-0.6-0.9-1.3-2
			C570.1,603.9,555.9,643.5,541.7,683.3z M539.1,223.5c9.5-12.9,18.4-24.9,27.4-36.8c2.2-2.9,2.4-5-0.2-7.7
			c-24.8-26.3-49.5-52.7-74.2-79.1c-2.2-2.4-4.7-4.5-7.1-6.7c-0.5,0.3-0.9,0.6-1.4,0.8C502,136.8,520.3,179.6,539.1,223.5z
			 M335.6,222.7c18.6-43.3,37.1-86.3,55.5-129.2c-0.3-0.2-0.6-0.5-0.9-0.7c-1.8,1.6-3.8,3.1-5.5,4.8c-9.7,9.8-19.5,19.4-28.9,29.5
			c-16.2,17.4-32,35-48,52.5c-2,2.2-1.9,3.9-0.2,6.1c8.5,11.3,17,22.7,25.4,34.1C333.6,220.8,334.5,221.5,335.6,222.7z M396.4,713.3
			c13.9,13.9,27.6,27.5,40.5,40.5c13.4-13.4,27.1-27.1,40.4-40.5C450.9,713.3,423.7,713.3,396.4,713.3z M389.1,756.5
			c0.2-0.4,0.4-0.9,0.6-1.3c-0.4-0.8-0.7-1.7-1.3-2.3c-12.2-12-24.3-24-36.6-35.9c-2.4-2.3-5.4-2.4-8.6-1.9
			c-7.7,1.3-15.4,2.5-23.1,3.8c-6.6,1.1-13.1,2.5-19.7,3.7c-0.1,0.5-0.1,1-0.2,1.5C328.6,738.6,358.1,749.6,389.1,756.5z
			 M574.4,724.2c-0.1-0.4-0.1-0.8-0.2-1.2c-0.5-0.1-0.9-0.4-1.4-0.4c-15.1-2.6-30.2-5.2-45.4-7.6c-1.5-0.2-3.7,0.6-4.9,1.8
			c-11.8,11.4-23.4,23-35.1,34.6c-1.1,1.1-1.9,2.7-2.8,4c0.3,0.4,0.5,0.8,0.8,1.2C516.5,749.7,546,738.4,574.4,724.2z"/>
	</g>
</g>
</svg>
