<?xml version="1.0" encoding="utf-8"?>
<!-- Generator: Adobe Illustrator 18.0.0, SVG Export Plug-In . SVG Version: 6.00 Build 0)  -->
<!DOCTYPE svg PUBLIC "-//W3C//DTD SVG 1.1//EN" "http://www.w3.org/Graphics/SVG/1.1/DTD/svg11.dtd">
<svg version="1.1" id="Capa_1" xmlns="http://www.w3.org/2000/svg" xmlns:xlink="http://www.w3.org/1999/xlink" x="0px" y="0px"
	 viewBox="0 0 800 800" enable-background="new 0 0 800 800" xml:space="preserve">
<g transform="translate(0,0)">
	<path fill="#FFFFFF" d="M503.2,31.5l-26.8,66.1c11,4.3,21.7,9.4,31.8,15.2l13.5-20.7l24.5,15.9l-13.5,20.8c1.3,1,2.6,2,4,3
		l-30.9,35.5c7.8,5.9,15.2,12.3,22,19.2l30.9-35.5c0.3,0.3,0.6,0.6,0.9,0.9l18.4-16.6l19.5,21.7l-18.4,16.6
		c7.4,9.2,14.1,18.9,20.1,29.1l22.1-11.2l13.3,26l-22,11.2c4.7,10.7,8.7,21.9,11.8,33.4l24.1-5.1l6.1,28.6l-24.1,5.1
		c1.7,11.5,2.7,23.3,2.8,35.3l24.7,1.3l-1.5,29.2l-24.6-1.3c-1.3,11.9-3.5,23.5-6.4,34.8l23.4,7.6l-9,27.8l-23.3-7.6
		c-4.3,11.1-9.4,21.8-15.2,32l20.5,13.3l-15.9,24.5l-20.5-13.3c-7,9.5-14.7,18.6-23,27l16.3,18.2l-21.7,19.5l-16.3-18.1
		c-9.2,7.4-19,14.2-29.2,20.2l11,21.6l-26,13.3l-11-21.6c-10.8,4.7-22,8.7-33.5,11.9l5,23.6l-28.6,6.1l-5-23.6
		c-11.6,1.8-23.4,2.7-35.4,2.8l-1.3,24.1l-29.2-1.5l1.3-24c-11.9-1.3-23.6-3.5-35-6.4l-7.4,22.8l-27.8-9l7.4-22.7
		c-11.1-4.3-21.9-9.5-32.1-15.3l-13,20L226.2,547l13-20c-1.5-1.1-2.9-2.2-4.3-3.3l31-35.7c-7.8-5.8-15.2-12.3-22-19.2l-31,35.7
		c-0.2-0.2-0.5-0.5-0.7-0.7l-17.7,16l-19.5-21.7l17.7-16c-7.1-8.9-13.7-18.3-19.5-28.2l-60.8,37c14.9,24.8,33,47.5,53.9,67.3
		l-32.1,37l22.1,19.1l32.1-37c54.3,43,123,68.7,197.6,68.7c2.1,0,4.3,0,6.4-0.1v30.4c-53.3,24-92.4,57.3-124.6,93.6h308.7
		c-30.7-38-70.1-68.7-126.2-93.3v-37.1c145.2-29.7,254.4-158.1,254.4-312c0-90.8-38-172.7-98.9-230.7l32.2-37l-22-19.1l-32.2,37
		C559.3,58.8,532.3,43.1,503.2,31.5L503.2,31.5z M385.8,160.7c-92.4,0-166.9,74.5-166.9,166.9c0,92.4,74.5,166.9,166.9,166.9
		s166.9-74.5,166.9-166.9c0-14.6-1.9-28.8-5.4-42.4c-16,39.2-36.1,70.5-71.7,104.6c-26.4-2.3-46.4-12.6-63.5-31.2
		c9.4-13.8,20.5-26.9,42.3-34.5c-19.6-44.2-28.4-88.4-33.4-132.6c19.5,7.2,31.5,18.6,45.7,39c12,2.7,26.3-10.7,36.4-21.8
		C472.9,179,431.6,160.7,385.8,160.7L385.8,160.7z M335,262.3c27.5,19.6,50.6,49.2,59.4,82.1c-17.3,14.5-26.4,33-31.1,53.8
		c26.5,12.9,47,33.3,65.1,56.6v0c-53.8-5.3-106.6-14.3-154.2-42.4c-19-32.5-29.9-65.1-31.1-97.6c25.9-11.8,51.9-7.7,77.8,1.4
		C335.3,298.1,335.3,283.4,335,262.3L335,262.3z"/>
</g>
</svg>
