<?xml version="1.0" encoding="utf-8"?>
<!-- Generator: Adobe Illustrator 18.0.0, SVG Export Plug-In . SVG Version: 6.00 Build 0)  -->
<!DOCTYPE svg PUBLIC "-//W3C//DTD SVG 1.1//EN" "http://www.w3.org/Graphics/SVG/1.1/DTD/svg11.dtd">
<svg version="1.1" id="Capa_1" xmlns="http://www.w3.org/2000/svg" xmlns:xlink="http://www.w3.org/1999/xlink" x="0px" y="0px"
	 viewBox="0 0 500 500" enable-background="new 0 0 500 500" xml:space="preserve">
<g>
	<g>
		<g>
			<path fill="#FFFFFF" d="M297.2,0c3,0.4,6,0.7,9,1.3c11,2.3,20.2,8.1,28.4,15.6c20.3,18.6,27.3,42,25.9,68.8
				c-1,17.8-8.5,32.2-21.3,44.1c-0.6,0.5-1.7,1-2.4,0.8c-24.8-6.1-50.1-6.8-75.5-6.5c-0.4,0-0.8-0.1-1.4-0.1
				c-1.1-4.8-1.9-9.6-3.2-14.3c-5.2-19.7-21.5-31.8-43.9-30c-7.6,0.6-15.1,2.8-22.7,4.3c-0.9,0.2-1.7,0.7-2.5,1.2
				c7.1-0.7,14.1-0.4,21,1.4c3.1,0.8,6.2,1.7,9.2,2.8c13.2,4.6,20.1,14.3,22.4,27.7c0.6,3.3,0.9,6.7,1.4,10.3
				c-4.7,1.1-9.1,2.2-13.6,3.1c-0.7,0.1-1.7-0.6-2.3-1.1c-4.4-4.2-8.7-8.6-13.3-12.6c-5.7-5-12.2-8.8-19.6-10.9
				c-9.1-2.7-17.4-0.2-25.1,4.1c-5.7,3.2-10.8,7.6-16,11.6c-3.4,2.6-6.5,5.4-9.7,8.2c-2.6,2.3-5.2,2.7-8.4,1.4
				c-1.9-0.8-4-1.2-6.2-1.9c1.5,5.6,7.5,9.8,13.1,9c4.6-0.7,9.1-1.9,13.5-3.3c10.9-3.4,22-5.8,33.5-4.6c5.6,0.6,11,2,15.5,5.7
				c0.9,0.7,1.8,1.2,2.8,1.8c-0.2,0.3-0.3,0.6-0.5,1c-2.2,1.3-4.3,2.5-6.5,3.8c-31.2,18.5-52.3,45.1-63.7,79.5
				c-5,15.1-5.4,30.8-4.7,46.5c0.9,20.3,7.7,39.1,16.2,57.3c2,4.3,2.1,4.4-1.4,7.4c-11.1,9.4-23.8,14.8-38.3,15.8
				c-5.2,0.4-10.5,0.1-15.8,0.4c-13.8,0.7-24.9-5.2-34.1-14.8c-13.1-13.8-20.5-30.3-22.6-49.2c-0.1-0.8-0.3-1.6-0.5-2.5
				c0-1.4,0-2.7,0-4.1c0.6,0.1,1.4,0.1,1.8,0.5c2.6,2.7,4.9,5.7,7.6,8.1c3.9,3.5,8.3,6.3,13.7,6.6c4.8,0.3,9.7,0.4,14.5,0
				c2.5-0.2,5.3-1,7.3-2.5c8.6-6.1,14.2-14.6,15-24.9c0.9-11.9,1.1-23.9,0.1-35.8c-1-11.6-3.6-23.1-5.9-34.5
				c-4.6-23.1-8.2-46.4-7.4-70.1c0.5-14.3,1.8-28.4,6.7-42c6.2-17.2,16.4-31,32.8-39.8c11.2-5.9,23.2-9.1,35.6-10.4
				c9.9-1,19.9-1.1,29.9-1.6c2.8-0.1,5.6-0.2,8.4-0.6c2.2-0.3,4.2-1,4.6-3.6c0.8-4.4-0.9-7.3-5.2-8c-3.7-0.7-7.6-0.7-11.4-0.9
				c-3-0.1-6,0-9.5,0c5.4-7.5,11.4-13.3,19.7-16.3c8.9-3.3,17.7-2,26.3,1.3c6.3,2.5,12.4,5.5,18.5,8.3c1.8,0.8,3.5,0.9,5.3,0
				c4.3-2,8.6-4,12.9-5.9c6.4-2.8,12.8-5.5,19.8-6.1c1.8-0.2,3.7-0.4,5.5-0.7C286.4,0,291.8,0,297.2,0z"/>
			<path fill="#FFFFFF" d="M359.3,386c-2.3,1-4.1,1.9-6,2.6c-4.8,1.7-9.6,3.4-14.4,5.1c-1.3,0.5-2.5,1-3.7,1.6
				c-8.6,4.5-11.6,11.4-9.1,20.8c2.5,9.5,8,17.3,14.3,24.6c1,1.2,2,2.4,3,3.6c-0.1,0.2-0.2,0.4-0.4,0.5
				c-52-10.9-104-21.8-156.1-32.8c0-6,0-11.8,0-17.6c0.1-15.7-1.3-31.3-4.6-46.7c-1.3-6.1-4.3-11.3-8-16.3
				c-10.5-14.3-18.8-29.9-23.1-47.2c-11-44.1,5.4-89.4,41.8-116.6c19.6-14.6,41.7-23.1,65.8-26.2c13.1-1.7,26.4-1.2,39.6,0.2
				c29.6,3.1,56,14.3,79.5,32.2c7.9,6,14.7,13.5,22,20.4c1.3,1.2,2.2,2.7,3.6,4.4c-1.5,0.6-2.6,1.2-3.7,1.5
				c-19.2,5.6-38.3,11.3-57.5,16.8c-26.9,7.7-53.7,15.2-80.6,22.7c-2.4,0.7-3,1.7-2.2,3.9c0.2,0.6,0.3,1.2,0.5,1.7
				c2.6,6.9,0.9,13-3.9,18.3c-1.1,1.2-2.1,2.4-3.4,4c42.3,36.7,90,62.2,145.2,73.2c0,0.2,0.1,0.5,0.1,0.7c-3.2,2.4-6.2,5.1-9.6,7.3
				c-2.3,1.5-3,3.1-2.7,5.8c0.5,5.6,0.5,11.3,0.7,17c0,1-0.1,2-0.2,3.5c-4.7-1.5-9-2.7-13.3-4.2c-16-5.4-30.8-13.2-45.3-21.6
				c-26.1-15.1-50.4-32.8-74-51.6c-2.8-2.2-5.7-4.3-8.8-6.1c-3.4-2-6.6-1.3-9.3,1.8c-2.8,3.1-3.4,6.7-1,9.7c2,2.6,4.4,5,6.9,7.1
				c33.5,27.7,69.2,52.1,108.5,70.7C352.9,382.5,355.8,384.2,359.3,386z M242.5,250.5c-0.1-4.9-4.5-9-9.5-8.9
				c-5.2,0.1-9.6,4.6-9.4,9.7c0.1,3.8,5.5,8.7,9.6,8.7C237.6,259.9,242.5,254.9,242.5,250.5z"/>
			<path fill="#FFFFFF" d="M369.2,498.8c-69.9-10.6-139.3-21.1-209-31.6c0.9-2,1.5-3.5,2.2-5c5.5-11,11-22,16.4-33
				c0.8-1.7,1.8-2,3.6-1.6c54.2,11.1,108.3,22.3,162.5,33.2c4.7,0.9,7.3,2.8,9.3,7.1c4.3,9.3,9,18.4,13.5,27.6
				C368.1,496.3,368.5,497.2,369.2,498.8z"/>
			<path fill="#FFFFFF" d="M392,221.2c7.5-2.6,14.9-5.2,22.6-7.9c1,2.8,2.1,5.3,2.8,7.9c5.3,17.7,10.5,35.4,15.8,53
				c0.8,2.7,0.7,5.3-0.6,7.9c-6.5,12.6-12.9,25.1-19.5,37.6c-3.6,6.7-3.7,6.7-11.2,5.4c-5.8-1-11.6-2.1-17.9-3.3
				c0.7-1.5,1.1-2.5,1.6-3.4c7.2-13.5,14.4-27,21.5-40.6c0.6-1.2,0.8-2.9,0.4-4.2c-4.9-16.6-9.9-33.1-14.8-49.6
				C392.5,223.3,392.3,222.4,392,221.2z"/>
			<path fill="#FFFFFF" d="M351.8,232.8c7.5-2.2,14.8-4.3,22.2-6.2c0.6-0.2,1.9,0.6,2.1,1.2c4.4,15,8.8,30,13,45.1
				c0.5,1.7,0.1,4-0.7,5.6c-5.1,10.4-10.4,20.7-15.6,31.1c-1.4,2.8-2.9,5.5-4.6,8.6c-7-3-14-5.9-20.9-8.8c-1.8-0.8-2-1.8-1-3.5
				c5.3-10.1,10.6-20.3,15.6-30.5c0.7-1.5,0.9-3.7,0.5-5.3c-3.2-11.5-6.6-22.9-9.9-34.4C352.2,234.9,352.1,234.1,351.8,232.8z"/>
			<path fill="#FFFFFF" d="M329.7,301.2c-7.2-4.3-14.3-8.5-21.6-12.7c2.5-4.6,4.6-9.1,7.3-13.1c4.1-6.1,5.1-12.3,2.2-19.2
				c-1.3-3.1-1.7-6.5-2.7-9.8c-0.4-1.5-0.1-2.6,1.4-3.1c6.8-2.1,13.6-4.2,20.4-6.1c0.4-0.1,1.6,1,1.8,1.7c2.1,7,3.8,14.1,6.1,21
				c1.9,6,1.3,11.3-1.8,16.8c-4.3,7.7-8.2,15.6-12.3,23.4C330.3,300.4,330.1,300.7,329.7,301.2z"/>
			<path fill="#FFFFFF" d="M299.6,247.7c7.7,12.3,1.8,22.2-4.9,32.2c-6.1-4.6-12.3-9.1-18.4-13.7c-1.3-1-1.3-2-0.6-3.5
				c0.8-1.6,1.5-3.5,1.5-5.3c0-2.2,1-3.3,2.9-3.9C286.6,251.6,293.2,249.6,299.6,247.7z"/>
		</g>
	</g>
</g>
</svg>
