<?xml version="1.0" encoding="utf-8"?>
<!-- Generator: Adobe Illustrator 18.0.0, SVG Export Plug-In . SVG Version: 6.00 Build 0)  -->
<!DOCTYPE svg PUBLIC "-//W3C//DTD SVG 1.1//EN" "http://www.w3.org/Graphics/SVG/1.1/DTD/svg11.dtd">
<svg version="1.1" id="Capa_1" xmlns="http://www.w3.org/2000/svg" xmlns:xlink="http://www.w3.org/1999/xlink" x="0px" y="0px"
	 viewBox="214 240 800 800" enable-background="new 214 240 800 800" xml:space="preserve">
<g transform="translate(0.000000,1280.000000) scale(0.100000,-0.100000)">
	<path fill="#FFFFFF" d="M6092.6,9950.9c-68.9-162.1-270.5-570.3-520.1-1052c-313.4-605.3-385.1-752.7-434.2-894.4
		c-71.7-206.7-97.7-365.9-92-561.9c3.4-120.3,14.1-191.4,45.7-300.4c28.8-99.4,61.5-171.7,154.2-342.8
		c116.3-215.1,279-540.4,270.5-540.4c-1.1,0-16.9,19.8-35,44c-92,123.1-232.1,269.4-343.9,358.6
		c-293.6,235.5-622.3,373.3-993.8,416.7c-79.6,9.6-297,9.6-381.2,0c-144-15.8-263.1-50.3-392.5-113.5
		c-362-176.2-622.3-530.8-686.6-934.5c-4.5-25.4-7.3-93.2-7.3-155.3c0-89.8,2.3-122.5,12.4-176.7
		c44.6-237.2,167.7-445.5,356.3-603.1c137.2-115.2,303.8-206.7,499.7-275.6c54.8-19.2,238.3-71.7,310-88.7
		c15.8-3.4,15.8-3.4-24.3,76.2c-22,44.6-47.4,102.8-56.5,129.9c-77.4,230.4-16.4,509.9,147.9,678.7
		c166.6,170.5,408.8,212.3,694.6,120.3c152.5-49.1,309.4-134.4,436.5-236.6c54.8-44,154.7-144.6,194.2-194.2l24.3-31.1l-35-9.6
		c-116.3-31.6-165.5-151.9-97.7-240.6l19.8-26l-19.8-17.5c-80.2-70.6-105-181.8-59.9-273.3c10.2-20.3,31.6-50.8,48-67.8l29.9-31.1
		l-16.9-20.9c-18.6-22.6-33.3-64.4-33.3-93.2c0-49.7,40.7-110.7,92-136.1c15.2-7.9,44.6-17.5,64.9-21.5l37.3-6.8l-25.4-14.7
		c-66.1-37.8-153.6-55.3-229.3-45.2c-83.6,11.3-141.2,39-189.7,90.9c-47.4,50.8-67.2,106.7-66.6,189.7
		c0.6,107.9,32.2,198.8,127.1,366.5c17.5,30.5,31.1,56.5,29.9,57.6c-0.6,1.1-41.8,5.6-91.5,11.3c-287.4,29.9-502.6-37.3-657.8-205
		c-79.1-85.3-133.8-191.4-162.6-314.5c-13-55.3-14.7-75.1-15.2-167.1c0-114.6,5.1-151.9,32.2-234.3
		c64.4-193.1,195.9-336.5,396.4-432.5c141.2-67.8,317.9-106.7,482.2-106.7c253.5,0,490.1,83,672,237.2c22,18.6,40.7,33.3,40.7,32.2
		c0-6.2-47.4-121.4-62.7-151.3c-48.6-97.1-96-146.8-229.8-239.4c-53.1-37.3-97.1-68.9-97.1-70.6s83-1.1,184.6,0.6
		c216.8,4.5,257.5,10.2,358.6,52.5c7.3,3.4,10.7-1.7,18.1-27.1c19.8-68.3,54.8-134.4,155.9-294.2c66.6-105,119.7-196.5,144.6-246.8
		l15.8-32.8h37.3h36.7l40.7,83.6c22,45.7,68.3,132.1,102.8,192c86.4,149.6,127.6,229.3,147.4,281.2c9.6,27.7,18.6,44,23.7,43.5
		c4-0.6,22.6-6.8,41.2-13.6c83.6-29.9,123.7-34.4,326.4-38.4c104.5-1.7,190.3-2.3,190.3-0.6s-46.3,33.3-102.8,70.6
		c-132.7,87.5-163.8,118.6-207.8,206.1c-20.9,40.7-46.9,107.9-43.5,110.7c1.1,1.1,23.7-11.9,49.7-29.9
		c253-170.5,614.4-212.3,933.4-108.4c267.7,87.5,448.4,254.7,522.3,483.9c26.5,81.9,31.6,119.7,31.6,232.6
		c-0.6,92-2.3,111.8-15.2,167.1c-28.8,123.1-83.6,229.3-162.6,314.5c-155.3,167.7-370.4,234.9-657.8,205
		c-49.7-5.6-90.9-10.2-91.5-11.3c-1.1-1.1,12.4-27.1,29.9-57.6c93.7-165.5,125.9-256.9,127.6-363.1
		c1.7-106.2-38.4-185.8-119.7-237.7c-100.5-64.4-256.4-64.9-367-0.6l-25.4,14.7l50.8,3.4c28.2,1.7,61.5,6.2,74.5,9.6
		c34.4,10.2,75.7,40.1,96,70c36.1,54.2,35.6,114.1-1.7,169.4l-19.2,28.8l28.8,28.8c58.2,57,83.6,140,64.9,211.2
		c-12.4,49.1-28.2,77.4-63.2,114.6l-30.5,31.6l19.2,28.8c24.8,36.7,33.3,76.2,25.4,113.5c-15.8,74.5-78.5,123.1-173.4,133.8
		c-19.2,1.7-35,5.1-35,6.8c0,15.8,154.2,173.9,223.6,228.1c120.3,95.4,279,179.6,424.6,227c286.3,92.6,526.8,50.3,695.1-122
		c163.8-166.6,224.7-447.2,147.4-677c-9-27.1-34.4-85.3-56.5-129.9c-40.1-79.6-40.1-79.6-24.3-76.2c71.7,16.9,255.2,69.5,310,88.7
		c482.8,168.8,779.8,473.8,856.1,878.6c10.2,54.2,12.4,87,12.4,176.7c0,62.1-2.8,129.9-7.3,155.3
		c-64.4,403.7-324.7,758.4-686.6,934.5c-183.5,89.8-334.3,120.8-584.4,120.8c-134.4,0-203.8-6.2-327.5-28.2
		c-373.8-68.3-716.6-247.9-993.8-521.2c-42.4-42.4-92-93.2-110.1-113.5l-32.2-36.7l62.1,124.2c34.4,68.3,92.6,179,128.7,245.6
		c93.7,173.4,138.9,267.1,163.2,339.9c90.3,272.7,80.7,577.7-28.2,895.6c-52.5,153.6-116.3,285.7-403.7,836.9
		c-271,520.1-473.8,926.1-553.4,1109.6l-31.6,73.4l-39.5,1.7l-40.1,1.7L6092.6,9950.9z M6147.3,5068.7
		c-878.6,1.7-882,1.7-897.3,13.6c-8.5,6.2-18.1,15.2-21.5,20.9c-9.6,14.7,12.4,39.5,42.4,47.4c18.6,5.1,245.6,6.2,908.6,5.6
		c879.8-1.1,883.7-1.1,903.5-12.4c13.6-8.5,20.3-16.4,21.5-27.7c2.8-22-11.9-35.6-46.3-42.9 M6153,4453.2
		c-884.9,1.7-887.7,1.7-902.9,13.6c-8.5,6.2-18.1,15.2-21.5,20.9c-9.6,14.7,12.4,39.5,42.4,47.4c18.6,5.1,245.6,6.2,908.6,5.6
		c879.8-1.1,883.7-1.1,903.5-12.4c22.6-13.6,29.4-37.3,14.1-53.6"/>
</g>
</svg>
