<?xml version="1.0" encoding="utf-8"?>
<!-- Generator: Adobe Illustrator 18.0.0, SVG Export Plug-In . SVG Version: 6.00 Build 0)  -->
<!DOCTYPE svg PUBLIC "-//W3C//DTD SVG 1.1//EN" "http://www.w3.org/Graphics/SVG/1.1/DTD/svg11.dtd">
<svg version="1.1" id="Capa_1" xmlns="http://www.w3.org/2000/svg" xmlns:xlink="http://www.w3.org/1999/xlink" x="0px" y="0px"
	 viewBox="0 0 800 800" enable-background="new 0 0 800 800" xml:space="preserve">
<g transform="translate(0,0)">
	<path fill="#FFFFFF" d="M776.5,22c-148.7,5.5-269.2,37.6-361.4,87.2l-46,77l-7.8-43.9c-16.5,11.6-31.7,23.8-45.8,36.6l-22.9,70.4
		l-7.9-39.3c-63.5,71.1-94.4,156-92.1,243.6C266.4,307.2,399.5,183.7,523.8,108l15.2,25C421.3,204.6,294.6,322.3,223,458.4h19
		c30.9-18.8,61.2-42,91.3-67.9L286,393l84.7-36.1c73.2-68.2,146-148.4,223.9-216.1l-38.2-8.1l88.3-32.9
		C686.6,67.8,730.3,40.7,776.5,22L776.5,22z M93,487.5v47.5h210.1v-47.5H93z M124.9,564.3l-51,44.8L39,741.8l22.7,24.8h276.9
		l22.8-24.8l-34.8-132.8l-48.3-44.8L124.9,564.3L124.9,564.3z"/>
</g>
</svg>
