<?xml version="1.0" encoding="utf-8"?>
<!-- Generator: Adobe Illustrator 18.0.0, SVG Export Plug-In . SVG Version: 6.00 Build 0)  -->
<!DOCTYPE svg PUBLIC "-//W3C//DTD SVG 1.1//EN" "http://www.w3.org/Graphics/SVG/1.1/DTD/svg11.dtd">
<svg version="1.1" id="Capa_1" xmlns="http://www.w3.org/2000/svg" xmlns:xlink="http://www.w3.org/1999/xlink" x="0px" y="0px"
	 viewBox="5 0 800 800" enable-background="new 5 0 800 800" xml:space="preserve">
<g transform="translate(0,0)">
	<path fill="#FFFFFF" d="M583.7,28.8c-24.4-0.3-43.6,7.2-50.9,23c-35.6,77.5-76.2,136.2-123.6,183.3c4.8,1.6,9.4,3.6,14,5.9
		c20.3,10.5,39.5,27.8,55.2,48.2c15.7,20.4,27.9,43.9,32.5,68c1.2,6.1,1.8,12.3,1.8,18.5c60.9-38.1,132.9-64.4,220.1-80.2
		c23.3-4.2,37-44.7,33.4-91.6l-54.9-1.6l47.8-38.8c-6.5-22.7-17.2-44.9-33.1-63.6c-24.3-28.6-56.9-49-88.6-60.4l-40.6,24.4l4.4-33.6
		C595.1,29.3,589.3,28.8,583.7,28.8L583.7,28.8z M385.8,260.3c-1.7,0.1-3.2,0.4-4.7,0.7c-18.7,16-38.5,30.6-59.3,44.2
		c1.3,0.5,2.6,1,3.9,1.6c22.1,9.7,42.9,26.8,60.1,47.9c20.9,25.5,36.9,57.7,40,90.2c16.1-16.2,33.2-31.2,51.3-44.9
		c6.4-10.2,7.7-22.6,4.9-37.4c-3.4-17.9-13.5-38.2-27-55.7c-13.5-17.5-30.3-32.2-45.4-40C400.3,262,392.3,259.9,385.8,260.3
		L385.8,260.3z M289.1,327.9c-2.2,0.1-4.2,0.4-6.2,0.9c-57.8,32.4-123.6,59.4-198.9,87.5c0.9,0.1,1.8,0.1,2.7,0.2
		c16.6,1.8,32.9,7.8,48.7,17l58.9-25.7l-24.7,51.1c9.4,8.5,18.4,17.9,27.1,28.1c32.4,38.2,59.3,87.3,73.6,137.6c0,0,0,0,0,0
		c4.7,16.4,8,32.7,9.9,48.4c32.8-75.7,69.3-139.5,113-192.2c11.4-33.6-3.4-75.6-29.8-107.9c-14.8-18-32.8-32.4-49.3-39.6
		C304.8,329.5,296.5,327.6,289.1,327.9L289.1,327.9z M510.4,413.6c-11.4,7.9-22.6,16.4-33.5,25.5c61.2,14.5,95.2,55.8,126,97.1
		c16.3,21.9,32.2,43.9,51.8,63.6c37.8,14.3,67.5,10,99.9-23.3C610.5,533,604.4,431.7,510.4,413.6L510.4,413.6z M75.9,445.2
		c-17,0.4-28.5,9-36.5,25.9c-9.1,19.4-11.1,50.7,0.7,89.2c9,29.3,25.8,58.9,44.9,80.7c19.1,21.7,40.5,34.5,55.3,35h0.1
		c5.8,0.2,10.2-1.1,13.8-4.3l-0.3-0.3l3.3-3.3c1.2-1.8,2.4-4,3.4-6.5c4.4-10.8,5.1-29-2.9-51.6c-10.8-30.3-29.9-49.9-52.1-54.3
		l-35.9-7.1l31-19.5l60.1-37.8c-26-26.3-54-43.1-77.1-45.7C80.9,445.2,78.4,445.1,75.9,445.2L75.9,445.2z M445.1,453.6l-38.3,39.6
		c156.9,27.9,86.6,220.3,248.9,275.3l-38.7-89.5c51.2,25.2,105.3,35.3,152.7,18.8C557.5,632.3,619.1,499.4,445.1,453.6z
		 M180.3,513.3l-40.6,25.5c20.6,13.3,36.3,35.3,45.5,61.3c4,11.3,6.5,22.2,7.4,32.5l36.6-36.5C216.6,566.2,199.5,537.4,180.3,513.3
		L180.3,513.3z M240.2,626.4L174.5,692l-0.2-0.2c-6.6,6.2-14.8,10.6-23.7,12.4c36.4,23.2,69.8,30.2,88.8,14.9
		c6.7-5.4,11-13.1,13.2-22.5c-0.6-19.8-4.1-41.6-10.4-63.9C241.5,630.6,240.9,628.5,240.2,626.4L240.2,626.4z"/>
</g>
</svg>
