<?xml version="1.0" encoding="utf-8"?>
<!-- Generator: Adobe Illustrator 18.0.0, SVG Export Plug-In . SVG Version: 6.00 Build 0)  -->
<!DOCTYPE svg PUBLIC "-//W3C//DTD SVG 1.1//EN" "http://www.w3.org/Graphics/SVG/1.1/DTD/svg11.dtd">
<svg version="1.1" id="Capa_1" xmlns="http://www.w3.org/2000/svg" xmlns:xlink="http://www.w3.org/1999/xlink" x="0px" y="0px"
	 viewBox="0 0 800 800" enable-background="new 0 0 800 800" xml:space="preserve">
<g>
	<g>
		<path fill="#FFFFFF" d="M731.6,514.3l5.2-7l0.1,0l0-0.2l17.4-23.4l-6.8-5.1l17.1-27.2l-13.9-8.8l0.8-1.8l6.1-0.6l-1.1-11.4
			l19.5-46.2l-9.2-3.9l7.4-22.3l-9.6-3.2l6.1-25.2l-12.4-3l-2.6-6.4l1.4-16.4l1.5-0.8l-1.2-2.3l2-23.2l-15.1-1.3l-0.3-5.2l5.9-4
			l-6.7-9.9l-1.5-23.3l-13.8,0.8l-3.5-5.1l8.1-7.1l-20.3-23.1l-3.9-12.9l3.4-3.8l-6.2-5.5L700,158l-10.2,3.1l-2.7-6.4l3.8-5.3
			l-8.6-6.1l-4.6-10.7l-6.6,2.8l-5.2-3.7l-6.1-10.9l2.9-5.5l-8.5-4.5l-3-5.4l-3.5,2l-10.8-5.7l3.7-8.9l-20.8-8.6l-8.8-11.5l1-3.3
			l-24-7l-1.4-1.5l1.4-6.8L549.8,46l1.1-11.1l-23.4-2.3l-6.2-4.5l-2.6,3.6l-2.1-0.2v-10h-28l-7.5-4.1l-2.3,4.1h-7.3l-5.4-2.4
			l-1.7-11.6l-27.1,4.1l-2.1-8.8l-37.7,9L393.4,0l-26.5,9.8l-3.9-8.4l-39.1,18.2L317.1,9l-31.4,19.6l-6-7.8l-43.5,33.2l-22.4,6.5
			l2.3,7.9L203,74l-13.7-10.1L176.7,81l-7.6-4.8l-24.7,39.2l-16.6-7l-12.4,29.2l-9.1-3l-10.2,30.7l-9.5-2.3l-13,53.8l-15.4-1.3
			l-3.9,44.7l-0.3,0.5l0.2,0.1l-0.8,8.7l-2.8,5.2l-11.5,0.7l2.5,40.9l-5.3,13.2l6.2,2.5l1,16l-2.2,10.7l-14.7,4.5l8.2,26.9l-0.7,3.3
			l1.8,0.4l3.3,10.9l-9.2,3.9l7.6,17.7l-0.3,2.6l1.5,0.2l6.4,15.1l-8.6,4.8l9.1,16.3v4.6h2.6l5.8,10.4l1.4,15.1l-4.8,3.7l14.9,19.5
			l2.9,16.5l2.4-0.4l-2.8,2.6l17,18l4.4,14.6c-7.9,8.4-14,18.6-16.9,30.9c-5.9,24.4-5.3,44.1-20.1,65.8
			c-12.9,19-30.1,35.1-43.5,53.9c-14.9,21,19.6,40.9,34.4,20.1c19-26.7,43.8-48.3,57.4-78.6c7.8-17.4,7.7-39.7,14.8-56.4l1.7-0.7
			l8.1,5.9l12.8,23.9l2.1-1.1l13.1,7.2l11.9,17.5c-3.1,11.9-4.1,23.9-4.9,36.4c-2.4,36.2-22.1,47.6-49.2,67.4
			c-20.5,15-0.7,49.6,20.1,34.4c22.4-16.3,58.2-36.1,65-65.7c3.7-16.2,3.3-32.6,5.3-47l2.5,2.8l3.8-3.3l12.9,4l24.1,21.4l5.2-5.9
			l4.9,1l30.6,21.5l6.5-9.2l41.6,22l4.3-8.2l34.4,14.1l4-9.7l37.8,11.1l2.3-7.7l25,5.3l2.3-11l38.2,3.7l1-10h33.3v-13.9l7.5-1.1
			l1.7,2.4l4.9-3.4l38.1-5.7l-1.3-8.8l30.5-7.2l-2.8-11.8l41.5-15.3l-3.2-8.7l5.7-2.7c23.7,43.9,23.3,108.2,72.2,136
			c22.4,12.7,42.4-21.7,20.1-34.4c-38.7-22-32.7-72.8-50-108.1c-3.9-8.1-8.5-15.7-13.5-22.9l21.6-13.5l-5.4-8.7l22.9-17.5l-8.4-11
			l8.6-21.6c33.3,17.5,38.1,72,48,108.4c6.7,24.8,45.2,14.2,38.4-10.6C781.1,598.8,769.8,539.7,731.6,514.3z M126.2,383.4
			c2-3.4,4.3-6.7,6.5-10c1-1.5,1.9-3,2.9-4.4c2-2.8,4.1-5.4,6.2-8.2c2.3-3,4.6-6,7.1-8.9c1.7-2,3.5-3.9,5.2-5.9
			c0.3-0.3,0.6-0.7,0.9-1c4.4-4.8,8.9-9.4,13.7-14c1.5-1.4,2.9-2.9,4.4-4.2c2.3-2,4.7-4,7-6c2.9-2.4,5.8-4.9,8.8-7.2
			c2.9-2.3,5.9-4.5,9-6.6c1.1-0.8,2.2-1.7,3.4-2.5c2.9-2,5.9-3.9,8.9-5.8c1.5-0.9,2.9-1.9,4.4-2.8c3.5-2.2,7.2-4.3,10.8-6.4
			c-1.5,3-3.1,6-4.4,9.1c-0.5,1.2-0.9,2.6-1.4,3.8c-0.3,0.7-0.5,1.4-0.8,2.1c-1.1,2.8-2.1,5.6-3.1,8.4c-0.5,1.5-1.1,3-1.5,4.5
			c-1.1,3.6-1.9,7.3-2.8,11c-0.3,1-0.6,2.1-0.8,3.1c-0.2,1-0.5,1.9-0.8,2.9c-1.2,5.8-2.1,11.6-2.7,17.5c-0.1,0.6-0.2,1.1-0.3,1.7
			c0,0.3,0,0.5-0.1,0.8c-0.1,0.8-0.1,1.6-0.1,2.4c-0.5,5.3-0.8,10.6-0.8,15.9c0,0.2,0,0.4,0,0.6c0,2.4,0.3,4.6,0.3,6.9
			c0.1,1.6,0.1,3.2,0.2,4.8c0.1,2,0.1,4.1,0.3,6.1c0.2,2.2,0.5,4.3,0.8,6.5c0.3,2.3,0.7,4.5,1,6.8c0.1,0.6,0.2,1.2,0.3,1.8
			c1.4,7.9,3.1,15.6,5.4,23.1c0,0,0,0,0,0c0.1,0.4,0.2,0.9,0.4,1.3c1.3,4.1,2.9,8.1,4.4,12.1c0.4,1.1,0.8,2.3,1.2,3.4
			c0.3,0.8,0.6,1.6,1,2.4c0.1,0.3,0.3,0.6,0.4,0.8c2.2,5,4.5,9.9,7.1,14.7c0.5,1,1.1,1.9,1.6,2.8c0.3,0.6,0.7,1.1,1,1.7
			c0.2,0.3,0.4,0.7,0.6,1c2.2,3.8,4.4,7.7,6.9,11.3c1.3,1.9,2.7,3.6,4.1,5.4c-2.4-1.1-4.8-2.2-7.1-3.4c-3.3-1.7-6.4-3.5-9.6-5.3
			c-2.6-1.4-5.2-2.8-7.7-4.3c-1.1-0.7-2.2-1.4-3.4-2.1c-0.8-0.5-1.7-1.1-2.5-1.6c-3.1-1.9-6.1-3.9-9.1-5.9c-2.3-1.6-4.5-3.2-6.8-4.9
			c-0.9-0.7-1.9-1.4-2.8-2.1c-5.3-3.9-10.4-8-15.4-12.3c-1.3-1.1-2.6-2.2-3.9-3.3c0,0,0,0,0,0c-0.9-0.8-1.9-1.6-2.8-2.4
			c-6.5-5.9-12.5-12.2-18.3-18.6c-0.8-0.9-1.7-1.9-2.5-2.8c-0.3-0.4-0.7-0.8-1-1.2c-5.2-6-10.1-12.2-14.6-18.5
			c-0.7-1-1.4-2.1-2.1-3.2c-1.1-1.6-2.1-3.3-3.2-4.9C129,387.6,127.5,385.6,126.2,383.4z M432.9,493.8c-1.2,0.4-2.5,0.6-3.7,1
			c-0.8,0.2-1.6,0.4-2.4,0.6c-2.4,0.6-4.9,1.1-7.3,1.5c-1,0.2-2,0.3-3.1,0.5c-0.7,0.1-1.3,0.2-1.9,0.3c-2.7,0.4-5.4,0.6-8.2,0.8
			c-2.8,0.2-5.6,0.4-8.5,0.4c-0.7,0-1.4-0.1-2.1-0.1c-1.4,0-2.7-0.1-4-0.2c-2-0.1-4.1-0.1-6.1-0.3c-2.2-0.2-4.2-0.6-6.3-0.9
			c-0.8-0.1-1.7-0.2-2.5-0.4c-1.4-0.2-2.7-0.3-4.1-0.6c-0.3-0.1-0.6-0.2-0.9-0.2c-2.5-0.5-4.9-1.2-7.3-1.9c-0.6-0.2-1.2-0.3-1.8-0.5
			c-0.7-0.2-1.4-0.3-2.1-0.6c-1.8-0.6-3.5-1.3-5.3-1.9c-1.7-0.6-3.5-1.2-5.1-1.9c-0.9-0.4-1.8-0.8-2.7-1.2c-0.9-0.4-1.8-0.9-2.7-1.3
			c-1.8-0.9-3.7-1.7-5.5-2.6c-0.7-0.3-1.3-0.7-2-1.1c-0.1,0-0.1-0.1-0.2-0.1c-1.8-1-3.4-2.1-5.1-3.1c-2.1-1.3-4.2-2.7-6.3-4.1
			c-0.6-0.4-1.1-0.8-1.7-1.3c-0.5-0.3-0.9-0.7-1.3-1c-1.8-1.3-3.5-2.6-5.2-4c-0.9-0.8-1.8-1.6-2.7-2.5c-1.3-1.2-2.7-2.4-4-3.6
			c-1.4-1.4-2.7-2.8-4.1-4.2c-0.2-0.2-0.3-0.4-0.5-0.5c-0.8-0.9-1.6-1.8-2.5-2.7c-2-2.2-3.8-4.5-5.6-6.9c-0.4-0.6-0.8-1.1-1.2-1.7
			c-1-1.3-2-2.6-2.9-3.9c-0.3-0.5-0.6-1-0.9-1.4c-1.7-2.5-3.2-5.1-4.7-7.8c-0.3-0.6-0.7-1.2-1.1-1.8c-0.7-1.3-1.3-2.7-2-4.1
			c0,0,0-0.1-0.1-0.1c-1-2-2-3.9-2.8-5.9c-0.2-0.5-0.4-1.1-0.6-1.6c-1.1-2.8-2.2-5.6-3.1-8.5c-0.3-0.8-0.5-1.5-0.8-2.2
			c0-0.1,0-0.2-0.1-0.3v0c-1.4-4.6-2.5-9.2-3.3-14c-0.1-0.4-0.1-0.7-0.2-1.1c-0.2-0.9-0.3-1.9-0.4-2.8c-0.3-2.3-0.7-4.6-0.9-7
			c-0.1-1.3-0.1-2.7-0.2-4c-0.1-1.8-0.3-3.7-0.3-5.5c0-0.7-0.1-1.4-0.1-2.1c0-1.3,0.2-2.6,0.2-3.9c0.1-2.3,0.2-4.6,0.3-6.9
			c0.1-1.1,0.2-2.1,0.3-3.2c0.4-3.4,0.9-6.7,1.5-10c0.1-0.5,0.1-1,0.2-1.4c0.3-1.3,0.7-2.6,1-3.9c0.3-1.4,0.7-2.8,1.1-4.1
			c0.6-2,1.1-4,1.8-6c0.8-2.3,1.6-4.6,2.5-6.9c0.3-0.8,0.6-1.7,0.9-2.5c0.2-0.5,0.5-1,0.7-1.5c0.3-0.6,0.6-1.2,0.9-1.8
			c1.2-2.7,2.4-5.3,3.8-7.9c0,0,0,0,0-0.1c1-1.9,2.2-3.6,3.3-5.4c0.3-0.4,0.5-0.8,0.8-1.2c0.1-0.1,0.2-0.3,0.3-0.4
			c1.6-2.6,3.4-5,5.2-7.5c0.6-0.8,1.1-1.5,1.7-2.3c1-1.3,1.9-2.5,3-3.7c2.3-2.7,4.7-5.4,7.2-7.9c0.5-0.5,1.1-1,1.7-1.5
			c3.5-3.3,7.1-6.4,10.9-9.3c0.5-0.4,0.9-0.7,1.4-1c1.1-0.8,2.2-1.7,3.4-2.5c0.7-0.5,1.4-0.9,2-1.4c1-0.6,2-1.2,2.9-1.8
			c1.6-1,3.3-2,4.9-3c2.4-1.3,4.8-2.5,7.2-3.7c0.4-0.2,0.8-0.4,1.2-0.6c1-0.5,2-1,3-1.4c0.2-0.1,0.3-0.2,0.5-0.2
			c1.7-0.7,3.4-1.3,5.2-2c0.3-0.1,0.7-0.2,1-0.4c0.4-0.2,0.8-0.3,1.2-0.5c2.3-0.8,4.6-1.6,6.9-2.3c2-0.6,4.1-1.1,6.2-1.6
			c0.8-0.2,1.6-0.5,2.4-0.6c2.1-0.5,4.2-0.8,6.3-1.1c0.5-0.1,1.1-0.2,1.6-0.3c0.7-0.1,1.3-0.2,1.9-0.3c4.9-0.7,9.9-1.1,15-1.2
			c0.6,0,1.1-0.1,1.7-0.1c2,0,4,0.2,6,0.3c0.7,0,1.5,0.1,2.2,0.1c1.4,0.1,2.7,0.1,4.1,0.2c4.4,0.4,8.7,1,12.9,1.9
			c0.3,0.1,0.6,0.2,0.9,0.2c1.2,0.3,2.4,0.6,3.6,0.9c1.8,0.5,3.7,0.9,5.5,1.4c0.7,0.2,1.4,0.3,2.1,0.6c3.6,1.1,7,2.4,10.4,3.8
			c0.9,0.4,1.8,0.8,2.7,1.2c2.8,1.2,5.5,2.5,8.2,3.9c0.2,0.1,0.5,0.2,0.8,0.4c0.5,0.3,0.9,0.5,1.4,0.8c3.9,2.2,7.7,4.6,11.4,7.2
			c0.6,0.4,1.1,0.8,1.7,1.3c0.2,0.1,0.4,0.3,0.6,0.4c3,2.2,5.9,4.5,8.7,7c1.9,1.7,3.8,3.3,5.6,5.1c0.9,0.9,1.6,1.8,2.5,2.7
			c1,1,2,2.1,2.9,3.2c1.1,1.2,2.2,2.4,3.2,3.7c0.8,1,1.6,2.1,2.4,3.2c1.4,1.9,2.9,3.7,4.2,5.6c2,3,3.9,6.1,5.6,9.2
			c0.3,0.6,0.7,1.2,1.1,1.8c0.7,1.2,1.2,2.5,1.8,3.8c0.2,0.3,0.3,0.7,0.5,1c-0.1-0.1-0.2-0.1-0.3-0.2c0,0,0,0-0.1,0
			c-1.6-1.1-3.3-2.1-5-3c-0.1-0.1-0.3-0.1-0.4-0.2c-0.6-0.3-1.2-0.6-1.9-0.9c-3.7-1.9-7.5-3.5-11.6-4.7c-2.6-0.8-5.3-1.4-8-1.9
			c-3.3-0.6-6.8-1-10.3-1.1c-0.9,0-1.9-0.1-2.8-0.1c-0.8,0-1.5,0.1-2.2,0.1c-4.4,0.1-8.7,0.6-12.9,1.5c-4.5,1-8.9,2.3-13.1,4.1
			c-0.8,0.3-1.6,0.8-2.3,1.1c-4.8,2.2-9.3,5-13.5,8.2c-0.7,0.5-1.5,1-2.2,1.6c-2.8,2.3-5.4,4.9-7.8,7.6c-0.7,0.8-1.5,1.5-2.1,2.4
			c-2.8,3.4-5.3,7.1-7.4,11c-0.5,0.8-0.9,1.7-1.3,2.6c-1.7,3.4-3.2,6.9-4.4,10.6c-0.2,0.6-0.3,1.2-0.5,1.8l-2.3,11
			c0,0.1,0,0.3-0.1,0.4c-0.1,0.5-0.2,0.9-0.2,1.4c0,0,0,0.1,0,0.1c0,0.1,0,0.2,0,0.3c0,0,0,0,0,0.1c0,0.1,0,0.1,0,0.1c0,0,0,0,0,0
			c0,0,0,0.1,0,0.1v0c0,0,0,0.1,0,0.1s0,0,0,0.1c0,0,0,0,0,0c0,0,0,0,0,0c0,0,0,0,0,0c0,0,0,0,0,0v0c0,0,0,0,0,0l0,0c0,0,0,0,0,0
			l0,0c0,0,0,0,0,0s0,0,0,0v0v0c0,0,0,0,0,0c0,0,0,0,0,0c0,0,0,0,0,0c0,0,0,0,0,0c0,0,0,0,0,0v0c0,0,0,0,0,0c0,0,0,0,0,0v0l0,0
			c0,0,0,0,0,0c0,0,0,0.1,0,0.1c0,0,0,0.1,0,0.1c0,0,0,0,0,0c0,0,0,0,0,0.1c0,0,0,0.1,0,0.1c0,0,0,0,0,0.1c0,0,0,0.1,0,0.1
			c0,0.1,0,0.1,0,0.2c0,0.1,0,0.1,0,0.2c0,0.2,0,0.3,0,0.5c0,0,0,0.1,0,0.1c-0.1,1.4-0.2,2.9-0.2,4.3c0,8.2,1.4,16.1,3.9,23.4
			c0.3,0.7,0.5,1.4,0.8,2.2c1.5,4,3.3,7.8,5.5,11.4c1.3,2.2,2.7,4.2,4.2,6.2c2,2.8,4.2,5.4,6.7,7.8c1.8,1.8,3.7,3.6,5.7,5.2
			c1.2,0.9,2.4,1.8,3.6,2.7c4.8,3.4,10,6.3,15.5,8.5c2.1,0.8,4.3,1.6,6.5,2.2c2.2,0.6,4.5,1.2,6.7,1.6c4.4,0.8,8.9,1.3,13.5,1.3
			c0,0,0.1,0,0.1,0c0.6,0,1.1-0.1,1.7-0.1c1,0,2-0.1,3-0.1c0.3,0,0.7,0,1-0.1c0.7-0.1,1.4-0.1,2.1-0.1c0.4-0.1,0.9-0.1,1.3-0.2
			c2.1-0.3,4.2-0.6,6.2-1c3-0.6,5.9-1.5,8.7-2.5c0.8-0.3,1.6-0.6,2.4-0.9c1.2-0.5,2.3-0.9,3.5-1.4c-0.6,0.9-1.3,1.7-1.9,2.6
			c-0.1,0.2-0.3,0.4-0.4,0.5c-1.6,2.2-3.3,4.3-5.1,6.4c-0.8,0.9-1.6,1.8-2.4,2.7c-1.3,1.4-2.5,2.9-3.9,4.3c-0.1,0.1-0.2,0.2-0.3,0.3
			c-1.3,1.3-2.7,2.4-4,3.6c-1.4,1.2-2.7,2.5-4.1,3.7c-1.4,1.2-2.8,2.2-4.3,3.3l0,0c-1.6,1.2-3.1,2.4-4.8,3.6
			c-0.3,0.2-0.5,0.4-0.8,0.6c-1.4,0.9-2.8,1.7-4.2,2.6c-1.1,0.7-2.2,1.3-3.2,2c-2,1.2-4.1,2.3-6.2,3.4c-1.3,0.7-2.6,1.3-3.9,1.9
			c-1.2,0.6-2.3,1.2-3.5,1.7c-1.9,0.8-3.8,1.5-5.7,2.2c-0.1,0.1-0.3,0.1-0.4,0.2c-1.8,0.7-3.5,1.4-5.3,1.9c-0.8,0.2-1.5,0.5-2.3,0.7
			C433.3,493.7,433.1,493.8,432.9,493.8z M669.4,383.4c-1.2,2-2.5,3.8-3.8,5.7c-1.5,2.4-3,4.7-4.6,7.1c-1.5,2.1-3,4.2-4.6,6.3
			c-0.9,1.2-1.9,2.4-2.8,3.6c-0.5,0.6-0.9,1.2-1.4,1.8c-4.2,5.3-8.6,10.5-13.3,15.5c-2.1,2.3-4.3,4.5-6.5,6.7
			c-2.8,2.8-5.6,5.6-8.6,8.4c-2.7,2.5-5.6,4.9-8.5,7.3c-2.2,1.9-4.4,3.8-6.7,5.7c-1.4,1.1-2.9,2.1-4.3,3.2c-0.3,0.3-0.7,0.5-1,0.8
			c-1.4,1.1-2.9,2.2-4.4,3.3c-0.4,0.3-0.7,0.5-1,0.8c-5,3.6-10.1,7-15.3,10.3c-0.4,0.2-0.7,0.5-1.1,0.7c-1,0.6-1.9,1.3-2.9,1.9
			c-3.1,1.9-6.3,3.6-9.5,5.4c-0.3,0.2-0.6,0.3-0.9,0.5c-0.8,0.4-1.5,0.9-2.3,1.3c-4.4,2.4-9,4.7-13.6,7c2.6-3.5,5.1-7.1,7.4-10.9
			c0.4-0.6,0.8-1.3,1.2-1.9c0.8-1.3,1.6-2.6,2.4-4c0.6-1,1.2-1.9,1.8-2.9c0.3-0.5,0.6-0.9,0.9-1.4c1.3-2.4,2.5-5,3.7-7.5
			c1-2.1,2.1-4.2,3-6.3c0.5-1.1,1.1-2.2,1.6-3.3c0.2-0.4,0.3-0.8,0.5-1.2c0.3-0.8,0.6-1.7,0.9-2.6c1.4-3.5,2.7-6.9,3.9-10.5
			c0.3-0.8,0.6-1.6,0.9-2.4c0.4-1.1,0.7-2.3,1-3.5c0.9-3,1.6-6,2.3-9.1c0-0.2,0.1-0.4,0.1-0.5c0.5-1.9,1-3.7,1.4-5.6
			c0-0.1,0.1-0.3,0.1-0.4c1.2-5.8,2.1-11.6,2.7-17.5c0.1-0.7,0.2-1.3,0.3-2c0.1-1,0.1-1.9,0.1-2.9c0.5-5.2,0.8-10.4,0.8-15.7
			c0-0.3,0-0.5,0-0.8c0-4-0.4-7.8-0.6-11.7c0-0.3,0-0.5,0-0.8c-0.1-1.8-0.1-3.6-0.3-5.3c-0.2-2.4-0.6-4.7-0.9-7.1
			c-0.3-2.6-0.8-5.3-1.2-7.9c-0.1-0.5-0.1-0.9-0.2-1.4c-0.8-4.5-1.8-8.8-2.9-13.2c-0.7-2.9-1.4-5.8-2.2-8.6v0
			c-0.8-2.8-1.9-5.5-2.9-8.2c-1-2.9-2-5.8-3.1-8.6c-0.3-0.8-0.6-1.6-1-2.4c-0.1-0.4-0.3-0.7-0.5-1c-1-2.4-2.3-4.7-3.4-7.1
			c-0.1-0.2-0.2-0.4-0.3-0.6c0.2,0.1,0.3,0.2,0.5,0.3c3.3,1.9,6.7,3.8,9.9,5.8c0.9,0.6,1.8,1.2,2.8,1.8c0.8,0.5,1.6,1,2.4,1.6
			c4.3,2.8,8.6,5.7,12.7,8.6c0.3,0.2,0.6,0.5,0.9,0.7c1.2,0.9,2.4,1.8,3.6,2.6c0,0,0,0,0,0c5,3.7,9.8,7.6,14.4,11.6
			c4,3.5,7.9,7,11.7,10.7c2.9,2.8,5.8,5.6,8.5,8.5c2.7,2.8,5.2,5.7,7.7,8.6c2.1,2.5,4.2,5,6.2,7.5c0.2,0.3,0.5,0.6,0.7,0.9
			c3.8,4.8,7.3,9.7,10.7,14.6c1.4,2,2.7,4,4,6.1C667.6,380.8,668.6,382,669.4,383.4z"/>
	</g>
</g>
</svg>
