<?xml version="1.0" encoding="utf-8"?>
<!-- Generator: Adobe Illustrator 18.0.0, SVG Export Plug-In . SVG Version: 6.00 Build 0)  -->
<!DOCTYPE svg PUBLIC "-//W3C//DTD SVG 1.1//EN" "http://www.w3.org/Graphics/SVG/1.1/DTD/svg11.dtd">
<svg version="1.1" id="Capa_1" xmlns="http://www.w3.org/2000/svg" xmlns:xlink="http://www.w3.org/1999/xlink" x="0px" y="0px"
	 viewBox="0 0 800 800" enable-background="new 0 0 800 800" xml:space="preserve">
<g>
	<path fill="#FFFFFF" d="M726.2,130.4h-4.1v-26.2c0-21.8-17.7-39.4-39.4-39.4h-0.2C470,64.7,435,155.4,418.2,199
		c-1,2.6-2.2,5.8-3.2,8.1l-19.4-11c0-36.2-29.5-65.8-65.8-65.8h-256C37.5,130.4,8,159.9,8,196.2v447.1C8,679.5,37.5,709,73.8,709
		h256c3.8,0,7.4-0.5,11.1-1.1v1.1c0,14.6,11.8,26.3,26.3,26.3H433c14.6,0,26.3-11.8,26.3-26.3v-1.1c3.6,0.6,7.4,1.1,11.1,1.1h255.9
		c36.2,0,65.8-29.5,65.8-65.8V196.2C792,159.9,762.5,130.4,726.2,130.4L726.2,130.4z M356.1,643.3c0,14.6-11.8,26.3-26.3,26.3h-256
		c-14.6,0-26.3-11.8-26.3-26.3V196.2c0-14.6,11.8-26.3,26.3-26.3h256c14.6,0,26.3,11.8,26.3,26.3V643.3L356.1,643.3z M446.1,232.3
		c19.6-26.7,13.2-128.2,236.5-128.2h0.2v448c-15-1.8-29.1-2.6-42.6-2.6c-122,0-182.6,66.6-194.2,80.4L446.1,232.3L446.1,232.3z
		 M752.6,643.3c0,14.6-11.8,26.3-26.3,26.3H470.3c-4,0-7.8-1-11.3-2.6c6.6-2.3,12.6-6.2,17.3-11.8c9.2-11,60.4-66.2,163.8-66.2
		c12.2,0,25,0.8,37.9,2.3c1.5,0.2,3.1,0.2,4.6,0.2c9.6,0,19-3.5,26.2-9.9c8.4-7.5,13.3-18.2,13.3-29.5V169.8h4.1
		c14.5,0,26.3,11.8,26.3,26.3V643.3L752.6,643.3z"/>
</g>
</svg>
