<?xml version="1.0" encoding="utf-8"?>
<!-- Generator: Adobe Illustrator 18.0.0, SVG Export Plug-In . SVG Version: 6.00 Build 0)  -->
<!DOCTYPE svg PUBLIC "-//W3C//DTD SVG 1.1//EN" "http://www.w3.org/Graphics/SVG/1.1/DTD/svg11.dtd">
<svg version="1.1" id="Capa_1" xmlns="http://www.w3.org/2000/svg" xmlns:xlink="http://www.w3.org/1999/xlink" x="0px" y="0px"
	 viewBox="0 0 800 800" enable-background="new 0 0 800 800" xml:space="preserve">
<g>
	<g>
		<path fill="#FFFFFF" d="M51.4,387c0-92.7,0-185.5,0-278.2c0-36.8,23.8-63.8,60.3-68.4c34.7-4.5,69.6,24,72.1,59.1
			c0.6,8.4,0.7,16.9,0.3,25.3c-0.2,5.4,1.7,8.5,6.9,9.7c24.9,5.6,49.5,13,74.7,16.5c73.1,10.2,146.8,9.7,220.3,5.9
			c42.4-2.2,84.7-6.6,125.6-19.1c18.9-5.8,19.2-5.9,18.7-25.6C629.9,92,632.5,73,646,56.9c18.1-21.6,47.5-29.7,73.6-20.2
			c27,9.8,44.2,34.6,44.3,64.5c0.1,81.3,0,162.6,0.1,243.9c0,104.2,0.2,208.4,0.2,312.5c0,40.8-30,71.7-68.7,70.6
			c-13.2-0.4-25.2-4.6-36.3-11.9c-2.3-1.5-6.1-2.2-8.6-1.4c-40,12.8-81.3,18.8-123,20.8c-49.4,2.4-98.9,4.3-148.3,3.9
			c-58.9-0.4-117.7-4-175.4-17.3c-10.4-2.4-20.4-6.1-30.8-8.6c-2.3-0.6-5.8,0.2-7.5,1.7c-21.9,20.2-46.9,26-74.2,14
			c-27-11.9-39.9-34.1-39.9-63.5c-0.1-93,0-186,0-279C51.3,387,51.3,387,51.4,387z M184.7,161.2c-0.2,3.1-0.5,5.5-0.5,7.9
			c0,161.9,0,323.7-0.1,485.6c0,9.1-0.2,18.4-1.5,27.4c-0.7,5.1,0.4,7.3,5.3,8.4c19.9,4.3,39.5,10.5,59.6,12.6
			c40.5,4.4,81.1,7.8,121.8,9.4c73.6,3,147.1,0.8,220.1-10.7c15.8-2.5,31.4-6.6,45.7-9.6c-1.7-13.3-4.5-25-4.5-36.7
			c-0.3-162.4-0.2-324.7-0.1-487.1c0-2.6,0-5.2,0-8.2c-73.3,22.8-147.8,25.3-222.4,25.4C333.3,185.7,258.6,183.3,184.7,161.2z
			 M737,549.4c0-4.5,0-7.7,0-10.8c0-82.5,0.1-165.1,0-247.6c0-46.5,0.1-93-0.7-139.4c-0.4-24.4-25.4-41.8-49-35.5
			c-19.4,5.2-30.2,20.9-30.2,44.9c-0.1,126.5,0,253.1,0,379.6c0,2.5,0.4,5.1,0.7,8.4C684.4,539.7,709.9,539.1,737,549.4z
			 M157.5,556.4c0-4.1,0-7,0-9.9c0-46.5,0-93,0-139.5c0-82.3,0.2-164.6-0.2-246.9c-0.1-28.8-32.3-47.2-57.6-33.6
			c-16.3,8.8-21.9,23.1-21.8,40.9C78,294,77.9,420.6,77.9,547.2c0,2.7,0,5.3,0,9.3C104.8,546.5,130.8,546.2,157.5,556.4z
			 M157.5,668.7c-0.1-21.9-18.3-40-39.9-39.8c-22,0.2-39.6,18.7-39.5,41.2c0.1,20.5,18.7,38.5,39.8,38.5
			C139.6,708.7,157.6,690.6,157.5,668.7z M736.6,660.7c-1.1-23.1-18.6-39.6-41.3-38.6c-22,0.9-39.1,20.1-37.8,42.5
			c1.2,20.6,20.9,38.3,41.3,37.1C720.6,700.3,737.5,682,736.6,660.7z M657.3,607.9c26.8-16.8,52.8-16.8,79.8-0.1
			c0-8.6,0.5-15.8-0.3-22.8c-0.3-3-2.8-7-5.4-8.3c-23.1-11.6-46.4-11.1-69.4,0.4c-1.9,1-4.4,3.3-4.5,5.1
			C657,590.2,657.3,598.3,657.3,607.9z M157.5,615c0-9.2,0.4-16.9-0.2-24.5c-0.2-2.3-2.5-5.3-4.7-6.4c-23.3-11.7-46.7-11.4-69.9,0.1
			c-1.8,0.9-4.4,2.8-4.4,4.3c-0.4,8.4-0.2,16.9-0.2,26.6C105,598.2,130.7,598.2,157.5,615z M657.9,100.3
			c26.1-16.2,52.2-16.3,78.3-0.1c1-22-16.8-40.3-38.4-40.5C675.3,59.5,657,77.7,657.9,100.3z M157,107.7
			c1.2-22.9-17.8-41.4-40.2-40.9c-21.7,0.5-40.2,19.8-38,40.8c11.8-8,24.6-12.4,38.5-12.6C131.4,95,144.4,99.4,157,107.7z"/>
		<path fill="#FFFFFF" d="M253.3,548.8c8.3,1,15.1,1.8,22,2.7c1.4,0.2,3.8,1.3,3.7,1.8c-0.6,8,6.6,8.3,11,11.1
			c17.5,11.4,25.4,32.9,19,52.8c-6.2,19.4-25.3,32.9-45.4,32c-20.8-0.9-38.7-15.9-43.2-35.9c-4.4-20.1,4.8-40.9,23.2-50.3
			C249.5,559.9,254.4,557.2,253.3,548.8z M284.3,603.4c0.1-10.7-8.6-19.6-19.1-19.5c-10.3,0.1-18.8,8.7-18.9,19
			c-0.1,10.8,8.5,19.6,19.1,19.5C275.7,622.3,284.2,613.8,284.3,603.4z"/>
		<path fill="#FFFFFF" d="M499.6,369.9c-6.6-6.5-12.5-12.4-19.4-19.3c8.1-7.2,16-14.2,24.7-22c-9.1-8.5-16.9-15.8-25-23.4
			c7.4-6.6,13.8-12.3,21.3-18.9c6,6.7,13.1,14.6,20.7,23.1c8.1-9,15.3-16.9,22.2-24.5c7.4,7.5,13.4,13.7,20.4,20.7
			c-7.4,6.5-15.3,13.6-24.3,21.5c9.3,8.2,17.3,15.3,25.5,22.5c-7.8,7.2-14.2,13-21.4,19.6c-5-5.3-11.1-11.5-16.8-18
			c-3.5-4-6.2-3.7-9.7,0.1C512,357.7,505.9,363.6,499.6,369.9z"/>
		<path fill="#FFFFFF" d="M528.2,539.4c7.5,3.7,14.9,7.4,23.3,11.5c-7.2,14.5-17.8,24.9-32.1,33.3c-4.4-7.8-8.6-15.2-11-19.5
			c8.3-7.7,15.7-14.4,23.1-21.2C530.4,542.1,529.3,540.7,528.2,539.4z"/>
		<path fill="#FFFFFF" d="M561.3,505.1c-10.1,0-18.4,0-26.5,0c-1.9-10.3-4-20.6-5.6-31.1c-0.2-1.3,1.5-3.8,2.8-4.2
			c7-2.2,14.1-4,22.7-6.3C556.9,477.5,559,490.7,561.3,505.1z"/>
		<path fill="#FFFFFF" d="M543.2,425.2c-8.4,1.7-16.8,3.5-26,5.4c-2-13.6-3.9-26.3-5.9-39.8c8.2-0.8,15.5-1.7,22.8-2
			c1.5-0.1,4.1,2,4.4,3.4C540.3,402.8,541.6,413.6,543.2,425.2z"/>
		<path fill="#FFFFFF" d="M288.3,515.9c-7.4-3.1-15.1-6.4-22.7-9.7c4.4-13.7,15.2-28.6,26.5-36.4c5.1,6.7,10.3,13.5,15,19.6
			C300.7,498.4,294.8,506.8,288.3,515.9z"/>
		<path fill="#FFFFFF" d="M381.8,477.2c-7.2,5.8-13.9,11.2-19.2,15.5c-8.5-4.5-16-8.5-24.2-12.9c0-6.8,0-15.2,0-24.3
			C356.6,455.8,370,463.7,381.8,477.2z"/>
		<path fill="#FFFFFF" d="M417.6,550.3c-7.3,4.4-14.6,8.7-22.9,13.8c-5.8-12.7-11.2-24.6-17-37.3c8.4-3.5,16.2-6.8,24.7-10.3
			C407.5,527.8,412.4,538.7,417.6,550.3z"/>
		<path fill="#FFFFFF" d="M476.4,598c-15.3,3-29.6,3.4-45-2c2.9-7.6,5.5-14.9,8.5-22.1c0.4-0.9,2.3-1.7,3.6-1.7
			c8.6-0.1,17.2-0.1,25.8,0.2c1.2,0,3.3,1.6,3.5,2.8C474.2,582.6,475.2,590.2,476.4,598z"/>
		<path fill="#FFFFFF" d="M284.3,603.4c-0.1,10.4-8.6,18.9-18.9,19c-10.6,0.1-19.2-8.7-19.1-19.5c0.1-10.4,8.6-18.9,18.9-19
			C275.7,583.8,284.4,592.6,284.3,603.4z"/>
	</g>
</g>
</svg>
