<?xml version="1.0" encoding="utf-8"?>
<!-- Generator: Adobe Illustrator 18.0.0, SVG Export Plug-In . SVG Version: 6.00 Build 0)  -->
<!DOCTYPE svg PUBLIC "-//W3C//DTD SVG 1.1//EN" "http://www.w3.org/Graphics/SVG/1.1/DTD/svg11.dtd">
<svg version="1.1" id="Capa_1" xmlns="http://www.w3.org/2000/svg" xmlns:xlink="http://www.w3.org/1999/xlink" x="0px" y="0px"
	 viewBox="0 0 800 800" enable-background="new 0 0 800 800" xml:space="preserve">
<g>
	<g>
		<path fill="#FFFFFF" d="M23,619.7c8.3-15.4,18.3-21.3,30.7-18.2c13.3,3.3,19.5,12.9,19.5,30.7c0,22.7,0,45.4,0,68.7
			c33.5,0,66.3,0,100,0c0.1-1.9,0.4-4.2,0.4-6.4c0-163.3,0.1-326.7-0.1-490c0-3.4-2-7.5-4.4-10c-13.6-14.1-27.7-27.8-41.4-41.8
			c-1.9-1.9-4-4.7-4.1-7c-0.3-32.2-0.2-64.3-0.2-97.1c16.7,0,33.1,0,50,0c0,16.2,0,32.3,0,49.1c16.9,0,33.2,0,50.4,0
			c0-16.2,0-32.5,0-49.2c17,0,33.1,0,50.1,0c0,16.3,0,32.6,0,49.4c17.2,0,33.5,0,50.4,0c0-16.4,0-32.5,0-49.2c16.9,0,33.2,0,50.4,0
			c0,16.3,0,32.6,0,49.3c17,0,33.1,0,50.1,0c0-16.4,0-32.7,0-49.5c17,0,33.1,0,50.1,0c0,16.2,0,32.5,0,49.3c17.2,0,33.5,0,50.4,0
			c0-16.3,0-32.5,0-49.2c16.9,0,33.2,0,50.4,0c0,16.3,0,32.6,0,49.3c17,0,33.1,0,50.1,0c0-16.3,0-32.6,0-49.4c17,0,33.1,0,50.5,0
			c0,2.3,0,4.7,0,7.2c0,28.8,0.2,57.6-0.2,86.4c0,3.7-1.9,8.1-4.4,10.8c-13.6,14.2-27.7,27.8-41.4,41.9c-2.2,2.3-4.1,6.2-4.1,9.4
			c-0.2,164.1-0.2,328.2-0.2,492.3c0,1.3,0.1,2.6,0.2,4.4c33.2,0,66.3,0,100.3,0c0-3.9,0-7.7,0-11.6c0-20.7-0.1-41.4,0-62
			c0.1-15.3,10.8-26.4,25.2-26.4c14.3,0,25,11.3,25.1,26.5c0.1,41.1,0,82.1,0,124.2c-251.6,0-502.8,0-753.9,0
			C23,707.6,23,663.7,23,619.7z M475.2,701c0-27.4,1-54.1-0.2-80.7c-1.8-37.3-33.6-67.8-70.6-69.7c-38.2-1.9-72.4,24.3-78.1,61.7
			c-2.4,15.9-1.4,32.3-1.6,48.5c-0.2,13.3,0,26.5,0,40.1C375.1,701,424.7,701,475.2,701z M224.1,349c17.2,0,33.5,0,50.2,0
			c0-25.7,0.3-50.8-0.1-75.8c-0.2-13.6-11.7-24.1-25-24.1c-13.1,0-24.6,10.2-24.9,23.4C223.8,297.8,224.1,323.1,224.1,349z
			 M374.8,349.2c0-26.1,0.3-51.4-0.1-76.8c-0.2-13.2-11.7-23.4-24.8-23.4c-13.4,0-24.7,10.4-25.1,24c-0.4,12.8-0.1,25.6-0.1,38.4
			c0,12.5,0,24.9,0,37.7C341.6,349.2,357.7,349.2,374.8,349.2z M475.4,349.2c0-24.6,0.1-48.9,0-73.1c-0.1-15.9-10.7-27.1-25.3-27
			c-14.6,0.1-24.8,11.4-24.9,27.4c-0.1,21.7,0,43.4,0,65.1c0,2.5,0.2,5,0.4,7.6C442.4,349.2,458.5,349.2,475.4,349.2z M575.9,349.2
			c0-25.2,0.1-49.5,0-73.8c-0.1-15.3-10.8-26.4-25.2-26.4c-14.3,0-25,11.2-25,26.5c-0.1,22.5,0,45,0,67.5c0,2,0.3,4,0.5,6.2
			C542.8,349.2,558.9,349.2,575.9,349.2z M274.2,499.9c0-26.4,0.5-52.3-0.2-78.1c-0.3-12.4-12.1-21.9-24.5-22
			c-12.6-0.1-24.5,9-24.9,21.5c-0.8,26.1-0.2,52.2-0.2,78.6C240.9,499.9,257,499.9,274.2,499.9z M374.9,500c0-25.2,0.1-49.5,0-73.8
			c-0.1-15.2-11-26.4-25.2-26.3c-14.3,0.1-24.9,11.3-25,26.6c-0.1,22.8,0,45.5,0,68.3c0,1.7,0.3,3.5,0.5,5.3
			C341.7,500,357.9,500,374.9,500z M475.3,500c0-24.6,0.1-48.9,0-73.1c-0.1-15.9-10.7-27.1-25.3-27c-14.5,0.1-24.8,11.4-24.9,27.5
			c-0.1,22,0,44,0,65.9c0,2.2,0.3,4.5,0.4,6.7C442.4,500,458.5,500,475.3,500z M525.6,499.9c17.5,0,33.6,0,50.1,0
			c0-26.1,0.4-51.6-0.2-77.2c-0.3-13.2-12.2-23.1-25.3-22.8c-13.1,0.2-23.9,10.5-24.5,23.8c-0.3,7-0.1,14.1-0.1,21.2
			C525.6,463,525.6,481.3,525.6,499.9z"/>
	</g>
</g>
</svg>
